<svg width="425" height="180" viewBox="0 0 425 180" fill="none" xmlns="http://www.w3.org/2000/svg">
<path d="M23.2305 171.662H20.9453V178H20.0127V171.662H17.7324V170.891H23.2305V171.662ZM25.8477 178.098C25.1315 178.098 24.5488 177.863 24.0996 177.395C23.6504 176.923 23.4258 176.293 23.4258 175.505V175.339C23.4258 174.815 23.5251 174.348 23.7236 173.938C23.9255 173.524 24.2054 173.202 24.5635 172.971C24.9248 172.736 25.3154 172.619 25.7354 172.619C26.4222 172.619 26.9561 172.845 27.3369 173.298C27.7178 173.75 27.9082 174.398 27.9082 175.241V175.617H24.3291C24.3421 176.138 24.4935 176.56 24.7832 176.882C25.0762 177.201 25.4473 177.36 25.8965 177.36C26.2155 177.36 26.4857 177.295 26.707 177.165C26.9284 177.035 27.1221 176.862 27.2881 176.647L27.8398 177.077C27.3971 177.757 26.7331 178.098 25.8477 178.098ZM25.7354 173.361C25.3708 173.361 25.0648 173.495 24.8174 173.762C24.57 174.025 24.417 174.396 24.3584 174.875H27.0049V174.807C26.9788 174.348 26.8551 173.993 26.6338 173.742C26.4124 173.488 26.113 173.361 25.7354 173.361ZM30.7305 174.646L31.9023 172.717H32.957L31.2285 175.329L33.0107 178H31.9658L30.7451 176.022L29.5244 178H28.4746L30.2568 175.329L28.5283 172.717H29.5732L30.7305 174.646ZM35.1445 171.438V172.717H36.1309V173.415H35.1445V176.691C35.1445 176.903 35.1885 177.062 35.2764 177.17C35.3643 177.274 35.514 177.326 35.7256 177.326C35.8298 177.326 35.973 177.307 36.1553 177.268V178C35.9176 178.065 35.6865 178.098 35.4619 178.098C35.0583 178.098 34.7539 177.976 34.5488 177.731C34.3438 177.487 34.2412 177.141 34.2412 176.691V173.415H33.2793V172.717H34.2412V171.438H35.1445Z" fill="#A3A3A3"/>
<path d="M120.23 171.662H117.945V178H117.013V171.662H114.732V170.891H120.23V171.662ZM122.848 178.098C122.132 178.098 121.549 177.863 121.1 177.395C120.65 176.923 120.426 176.293 120.426 175.505V175.339C120.426 174.815 120.525 174.348 120.724 173.938C120.925 173.524 121.205 173.202 121.563 172.971C121.925 172.736 122.315 172.619 122.735 172.619C123.422 172.619 123.956 172.845 124.337 173.298C124.718 173.75 124.908 174.398 124.908 175.241V175.617H121.329C121.342 176.138 121.493 176.56 121.783 176.882C122.076 177.201 122.447 177.36 122.896 177.36C123.215 177.36 123.486 177.295 123.707 177.165C123.928 177.035 124.122 176.862 124.288 176.647L124.84 177.077C124.397 177.757 123.733 178.098 122.848 178.098ZM122.735 173.361C122.371 173.361 122.065 173.495 121.817 173.762C121.57 174.025 121.417 174.396 121.358 174.875H124.005V174.807C123.979 174.348 123.855 173.993 123.634 173.742C123.412 173.488 123.113 173.361 122.735 173.361ZM127.73 174.646L128.902 172.717H129.957L128.229 175.329L130.011 178H128.966L127.745 176.022L126.524 178H125.475L127.257 175.329L125.528 172.717H126.573L127.73 174.646ZM132.145 171.438V172.717H133.131V173.415H132.145V176.691C132.145 176.903 132.188 177.062 132.276 177.17C132.364 177.274 132.514 177.326 132.726 177.326C132.83 177.326 132.973 177.307 133.155 177.268V178C132.918 178.065 132.687 178.098 132.462 178.098C132.058 178.098 131.754 177.976 131.549 177.731C131.344 177.487 131.241 177.141 131.241 176.691V173.415H130.279V172.717H131.241V171.438H132.145Z" fill="#A3A3A3"/>
<path d="M217.23 171.662H214.945V178H214.013V171.662H211.732V170.891H217.23V171.662ZM219.848 178.098C219.132 178.098 218.549 177.863 218.1 177.395C217.65 176.923 217.426 176.293 217.426 175.505V175.339C217.426 174.815 217.525 174.348 217.724 173.938C217.925 173.524 218.205 173.202 218.563 172.971C218.925 172.736 219.315 172.619 219.735 172.619C220.422 172.619 220.956 172.845 221.337 173.298C221.718 173.75 221.908 174.398 221.908 175.241V175.617H218.329C218.342 176.138 218.493 176.56 218.783 176.882C219.076 177.201 219.447 177.36 219.896 177.36C220.215 177.36 220.486 177.295 220.707 177.165C220.928 177.035 221.122 176.862 221.288 176.647L221.84 177.077C221.397 177.757 220.733 178.098 219.848 178.098ZM219.735 173.361C219.371 173.361 219.065 173.495 218.817 173.762C218.57 174.025 218.417 174.396 218.358 174.875H221.005V174.807C220.979 174.348 220.855 173.993 220.634 173.742C220.412 173.488 220.113 173.361 219.735 173.361ZM224.73 174.646L225.902 172.717H226.957L225.229 175.329L227.011 178H225.966L224.745 176.022L223.524 178H222.475L224.257 175.329L222.528 172.717H223.573L224.73 174.646ZM229.145 171.438V172.717H230.131V173.415H229.145V176.691C229.145 176.903 229.188 177.062 229.276 177.17C229.364 177.274 229.514 177.326 229.726 177.326C229.83 177.326 229.973 177.307 230.155 177.268V178C229.918 178.065 229.687 178.098 229.462 178.098C229.058 178.098 228.754 177.976 228.549 177.731C228.344 177.487 228.241 177.141 228.241 176.691V173.415H227.279V172.717H228.241V171.438H229.145Z" fill="#A3A3A3"/>
<path d="M314.23 171.662H311.945V178H311.013V171.662H308.732V170.891H314.23V171.662ZM316.848 178.098C316.132 178.098 315.549 177.863 315.1 177.395C314.65 176.923 314.426 176.293 314.426 175.505V175.339C314.426 174.815 314.525 174.348 314.724 173.938C314.925 173.524 315.205 173.202 315.563 172.971C315.925 172.736 316.315 172.619 316.735 172.619C317.422 172.619 317.956 172.845 318.337 173.298C318.718 173.75 318.908 174.398 318.908 175.241V175.617H315.329C315.342 176.138 315.493 176.56 315.783 176.882C316.076 177.201 316.447 177.36 316.896 177.36C317.215 177.36 317.486 177.295 317.707 177.165C317.928 177.035 318.122 176.862 318.288 176.647L318.84 177.077C318.397 177.757 317.733 178.098 316.848 178.098ZM316.735 173.361C316.371 173.361 316.065 173.495 315.817 173.762C315.57 174.025 315.417 174.396 315.358 174.875H318.005V174.807C317.979 174.348 317.855 173.993 317.634 173.742C317.412 173.488 317.113 173.361 316.735 173.361ZM321.73 174.646L322.902 172.717H323.957L322.229 175.329L324.011 178H322.966L321.745 176.022L320.524 178H319.475L321.257 175.329L319.528 172.717H320.573L321.73 174.646ZM326.145 171.438V172.717H327.131V173.415H326.145V176.691C326.145 176.903 326.188 177.062 326.276 177.17C326.364 177.274 326.514 177.326 326.726 177.326C326.83 177.326 326.973 177.307 327.155 177.268V178C326.918 178.065 326.687 178.098 326.462 178.098C326.058 178.098 325.754 177.976 325.549 177.731C325.344 177.487 325.241 177.141 325.241 176.691V173.415H324.279V172.717H325.241V171.438H326.145Z" fill="#A3A3A3"/>
<path d="M411.23 171.662H408.945V178H408.013V171.662H405.732V170.891H411.23V171.662ZM413.848 178.098C413.132 178.098 412.549 177.863 412.1 177.395C411.65 176.923 411.426 176.293 411.426 175.505V175.339C411.426 174.815 411.525 174.348 411.724 173.938C411.925 173.524 412.205 173.202 412.563 172.971C412.925 172.736 413.315 172.619 413.735 172.619C414.422 172.619 414.956 172.845 415.337 173.298C415.718 173.75 415.908 174.398 415.908 175.241V175.617H412.329C412.342 176.138 412.493 176.56 412.783 176.882C413.076 177.201 413.447 177.36 413.896 177.36C414.215 177.36 414.486 177.295 414.707 177.165C414.928 177.035 415.122 176.862 415.288 176.647L415.84 177.077C415.397 177.757 414.733 178.098 413.848 178.098ZM413.735 173.361C413.371 173.361 413.065 173.495 412.817 173.762C412.57 174.025 412.417 174.396 412.358 174.875H415.005V174.807C414.979 174.348 414.855 173.993 414.634 173.742C414.412 173.488 414.113 173.361 413.735 173.361ZM418.73 174.646L419.902 172.717H420.957L419.229 175.329L421.011 178H419.966L418.745 176.022L417.524 178H416.475L418.257 175.329L416.528 172.717H417.573L418.73 174.646ZM423.145 171.438V172.717H424.131V173.415H423.145V176.691C423.145 176.903 423.188 177.062 423.276 177.17C423.364 177.274 423.514 177.326 423.726 177.326C423.83 177.326 423.973 177.307 424.155 177.268V178C423.918 178.065 423.687 178.098 423.462 178.098C423.058 178.098 422.754 177.976 422.549 177.731C422.344 177.487 422.241 177.141 422.241 176.691V173.415H421.279V172.717H422.241V171.438H423.145Z" fill="#A3A3A3"/>
<path d="M16.4336 159.968C16.4336 161.026 16.2529 161.812 15.8916 162.326C15.5303 162.84 14.9655 163.098 14.1973 163.098C13.4388 163.098 12.8773 162.847 12.5127 162.346C12.1481 161.841 11.9593 161.089 11.9463 160.09V158.884C11.9463 157.839 12.127 157.062 12.4883 156.555C12.8496 156.047 13.416 155.793 14.1875 155.793C14.9525 155.793 15.5156 156.039 15.877 156.53C16.2383 157.019 16.4238 157.774 16.4336 158.796V159.968ZM15.5303 158.732C15.5303 157.967 15.4229 157.411 15.208 157.062C14.9932 156.711 14.653 156.535 14.1875 156.535C13.7253 156.535 13.3883 156.709 13.1768 157.058C12.9652 157.406 12.8561 157.941 12.8496 158.664V160.109C12.8496 160.878 12.9603 161.446 13.1816 161.813C13.4062 162.178 13.7448 162.36 14.1973 162.36C14.6432 162.36 14.9736 162.188 15.1885 161.843C15.4066 161.498 15.5205 160.954 15.5303 160.212V158.732Z" fill="#A3A3A3"/>
<path d="M6.77539 81.4355L7.13672 77.8906H10.7793V78.7256H7.90332L7.68848 80.6641C8.03678 80.459 8.43229 80.3564 8.875 80.3564C9.52279 80.3564 10.0371 80.5713 10.418 81.001C10.7988 81.4274 10.9893 82.0052 10.9893 82.7344C10.9893 83.4668 10.7907 84.0446 10.3936 84.4678C9.99967 84.8877 9.44792 85.0977 8.73828 85.0977C8.11003 85.0977 7.59733 84.9235 7.2002 84.5752C6.80306 84.2269 6.57682 83.7451 6.52148 83.1299H7.37598C7.43132 83.5368 7.57617 83.8444 7.81055 84.0527C8.04492 84.2578 8.35417 84.3604 8.73828 84.3604C9.1582 84.3604 9.48698 84.2171 9.72461 83.9307C9.96549 83.6442 10.0859 83.2487 10.0859 82.7441C10.0859 82.2689 9.95573 81.888 9.69531 81.6016C9.43815 81.3118 9.09473 81.167 8.66504 81.167C8.27116 81.167 7.96191 81.2533 7.7373 81.4258L7.49805 81.6211L6.77539 81.4355ZM16.4336 81.9678C16.4336 83.0257 16.2529 83.8118 15.8916 84.3262C15.5303 84.8405 14.9655 85.0977 14.1973 85.0977C13.4388 85.0977 12.8773 84.847 12.5127 84.3457C12.1481 83.8411 11.9593 83.0892 11.9463 82.0898V80.8838C11.9463 79.8389 12.127 79.0625 12.4883 78.5547C12.8496 78.0469 13.416 77.793 14.1875 77.793C14.9525 77.793 15.5156 78.0387 15.877 78.5303C16.2383 79.0186 16.4238 79.7738 16.4336 80.7959V81.9678ZM15.5303 80.7324C15.5303 79.9674 15.4229 79.4108 15.208 79.0625C14.9932 78.7109 14.653 78.5352 14.1875 78.5352C13.7253 78.5352 13.3883 78.7093 13.1768 79.0576C12.9652 79.4059 12.8561 79.9414 12.8496 80.6641V82.1094C12.8496 82.8776 12.9603 83.4456 13.1816 83.8135C13.4062 84.1781 13.7448 84.3604 14.1973 84.3604C14.6432 84.3604 14.9736 84.1878 15.1885 83.8428C15.4066 83.4977 15.5205 82.9541 15.5303 82.2119V80.7324Z" fill="#A3A3A3"/>
<path d="M3.71387 8H2.80566V1.97949L0.984375 2.64844V1.82812L3.57227 0.856445H3.71387V8ZM10.8184 4.96777C10.8184 6.02572 10.6377 6.81185 10.2764 7.32617C9.91504 7.84049 9.35026 8.09766 8.58203 8.09766C7.82357 8.09766 7.26204 7.84701 6.89746 7.3457C6.53288 6.84115 6.34408 6.08919 6.33105 5.08984V3.88379C6.33105 2.83887 6.51172 2.0625 6.87305 1.55469C7.23438 1.04688 7.80078 0.792969 8.57227 0.792969C9.33724 0.792969 9.90039 1.03874 10.2617 1.53027C10.623 2.01855 10.8086 2.77376 10.8184 3.7959V4.96777ZM9.91504 3.73242C9.91504 2.96745 9.80762 2.41081 9.59277 2.0625C9.37793 1.71094 9.03776 1.53516 8.57227 1.53516C8.11003 1.53516 7.77311 1.70931 7.56152 2.05762C7.34993 2.40592 7.24089 2.94141 7.23438 3.66406V5.10938C7.23438 5.8776 7.34505 6.44564 7.56641 6.81348C7.79102 7.17806 8.12956 7.36035 8.58203 7.36035C9.02799 7.36035 9.3584 7.18783 9.57324 6.84277C9.79134 6.49772 9.90527 5.9541 9.91504 5.21191V3.73242ZM16.4336 4.96777C16.4336 6.02572 16.2529 6.81185 15.8916 7.32617C15.5303 7.84049 14.9655 8.09766 14.1973 8.09766C13.4388 8.09766 12.8773 7.84701 12.5127 7.3457C12.1481 6.84115 11.9593 6.08919 11.9463 5.08984V3.88379C11.9463 2.83887 12.127 2.0625 12.4883 1.55469C12.8496 1.04688 13.416 0.792969 14.1875 0.792969C14.9525 0.792969 15.5156 1.03874 15.877 1.53027C16.2383 2.01855 16.4238 2.77376 16.4336 3.7959V4.96777ZM15.5303 3.73242C15.5303 2.96745 15.4229 2.41081 15.208 2.0625C14.9932 1.71094 14.653 1.53516 14.1875 1.53516C13.7253 1.53516 13.3883 1.70931 13.1768 2.05762C12.9652 2.40592 12.8561 2.94141 12.8496 3.66406V5.10938C12.8496 5.8776 12.9603 6.44564 13.1816 6.81348C13.4062 7.17806 13.7448 7.36035 14.1973 7.36035C14.6432 7.36035 14.9736 7.18783 15.1885 6.84277C15.4066 6.49772 15.5205 5.9541 15.5303 5.21191V3.73242Z" fill="#A3A3A3"/>
<path d="M27 5V160" stroke="#F0F0F0"/>
<path d="M124 5V160" stroke="#F0F0F0"/>
<path d="M221 5V160" stroke="#F0F0F0"/>
<path d="M318 5V160" stroke="#F0F0F0"/>
<path d="M415 5V160" stroke="#F0F0F0"/>
<path d="M27 160H415" stroke="#F0F0F0"/>
<path d="M27 82H415" stroke="#F0F0F0"/>
<path d="M27 5H415" stroke="#F0F0F0"/>
<path d="M124 11C75 11 27 20 27 20V160H415V136C415 136 366 138 318 138C269 138 269 34 221 34C172 34 172 11 124 11Z" fill="#A6CEE3" fill-opacity="0.8"/>
<path d="M124 18C75 18 27 144 27 144V160H415V17C415 17 366 133 318 133C269 133 269 74 221 74C172 74 172 18 124 18Z" fill="#1F78B4" fill-opacity="0.8"/>
<path d="M124 158C75 158 27 77 27 77V160H415V63C415 63 366 60 318 60C269 60 269 129 221 129C172 129 172 158 124 158Z" fill="#B2DF8A" fill-opacity="0.8"/>
</svg>
