<svg width="423" height="384" viewBox="0 0 423 384" fill="none" xmlns="http://www.w3.org/2000/svg">
<path d="M16.292 380.111C16.2399 380.007 16.1976 379.822 16.165 379.555C15.7451 379.991 15.2438 380.209 14.6611 380.209C14.1403 380.209 13.7122 380.063 13.377 379.77C13.0449 379.473 12.8789 379.099 12.8789 378.647C12.8789 378.096 13.0872 377.67 13.5039 377.367C13.9238 377.061 14.513 376.908 15.2715 376.908H16.1504V376.493C16.1504 376.178 16.056 375.927 15.8672 375.741C15.6784 375.553 15.4001 375.458 15.0322 375.458C14.71 375.458 14.4398 375.54 14.2217 375.702C14.0036 375.865 13.8945 376.062 13.8945 376.293H12.9863C12.9863 376.029 13.0791 375.776 13.2646 375.531C13.4535 375.284 13.7074 375.089 14.0264 374.945C14.3486 374.802 14.7018 374.731 15.0859 374.731C15.6947 374.731 16.1715 374.884 16.5166 375.19C16.8617 375.492 17.0407 375.911 17.0537 376.444V378.876C17.0537 379.361 17.1156 379.747 17.2393 380.033V380.111H16.292ZM14.793 379.423C15.0762 379.423 15.3447 379.35 15.5986 379.203C15.8525 379.057 16.0365 378.866 16.1504 378.632V377.548H15.4424C14.3356 377.548 13.7822 377.872 13.7822 378.52C13.7822 378.803 13.8766 379.024 14.0654 379.184C14.2542 379.343 14.4967 379.423 14.793 379.423ZM22.9424 377.528C22.9424 378.336 22.7568 378.985 22.3857 379.477C22.0146 379.965 21.5166 380.209 20.8916 380.209C20.2243 380.209 19.7083 379.973 19.3438 379.501L19.2998 380.111H18.4697V372.611H19.373V375.409C19.7376 374.957 20.2406 374.731 20.8818 374.731C21.5231 374.731 22.026 374.973 22.3906 375.458C22.7585 375.943 22.9424 376.607 22.9424 377.45V377.528ZM22.0391 377.426C22.0391 376.811 21.9202 376.335 21.6826 376C21.445 375.665 21.1032 375.497 20.6572 375.497C20.0615 375.497 19.6335 375.774 19.373 376.327V378.612C19.6497 379.166 20.0811 379.443 20.667 379.443C21.0999 379.443 21.4368 379.275 21.6777 378.94C21.9186 378.604 22.0391 378.1 22.0391 377.426ZM26.6387 375.639C26.502 375.616 26.3538 375.605 26.1943 375.605C25.6019 375.605 25.1999 375.857 24.9883 376.361V380.111H24.085V374.828H24.9639L24.9785 375.439C25.2747 374.967 25.6947 374.731 26.2383 374.731C26.4141 374.731 26.5475 374.753 26.6387 374.799V375.639ZM28.4551 380.111H27.5518V374.828H28.4551V380.111ZM27.4785 373.427C27.4785 373.28 27.5225 373.157 27.6104 373.056C27.7015 372.955 27.835 372.904 28.0107 372.904C28.1865 372.904 28.32 372.955 28.4111 373.056C28.5023 373.157 28.5479 373.28 28.5479 373.427C28.5479 373.573 28.5023 373.695 28.4111 373.793C28.32 373.891 28.1865 373.94 28.0107 373.94C27.835 373.94 27.7015 373.891 27.6104 373.793C27.5225 373.695 27.4785 373.573 27.4785 373.427ZM30.8867 380.111H29.9834V372.611H30.8867V380.111Z" fill="#A3A3A3"/>
<path d="M206.861 374.828L206.886 375.414C207.273 374.958 207.796 374.731 208.453 374.731C209.192 374.731 209.695 375.014 209.962 375.58C210.138 375.326 210.366 375.121 210.646 374.965C210.929 374.809 211.262 374.731 211.646 374.731C212.805 374.731 213.395 375.344 213.414 376.571V380.111H212.511V376.625C212.511 376.248 212.424 375.966 212.252 375.78C212.079 375.592 211.79 375.497 211.383 375.497C211.048 375.497 210.769 375.598 210.548 375.8C210.326 375.998 210.198 376.267 210.162 376.606V380.111H209.254V376.65C209.254 375.881 208.878 375.497 208.126 375.497C207.534 375.497 207.128 375.749 206.91 376.254V380.111H206.007V374.828H206.861ZM218.043 380.111C217.991 380.007 217.949 379.822 217.916 379.555C217.496 379.991 216.995 380.209 216.412 380.209C215.891 380.209 215.463 380.063 215.128 379.77C214.796 379.473 214.63 379.099 214.63 378.647C214.63 378.096 214.838 377.67 215.255 377.367C215.675 377.061 216.264 376.908 217.022 376.908H217.901V376.493C217.901 376.178 217.807 375.927 217.618 375.741C217.429 375.553 217.151 375.458 216.783 375.458C216.461 375.458 216.191 375.54 215.973 375.702C215.755 375.865 215.646 376.062 215.646 376.293H214.737C214.737 376.029 214.83 375.776 215.016 375.531C215.204 375.284 215.458 375.089 215.777 374.945C216.1 374.802 216.453 374.731 216.837 374.731C217.446 374.731 217.923 374.884 218.268 375.19C218.613 375.492 218.792 375.911 218.805 376.444V378.876C218.805 379.361 218.867 379.747 218.99 380.033V380.111H218.043ZM216.544 379.423C216.827 379.423 217.096 379.35 217.35 379.203C217.604 379.057 217.787 378.866 217.901 378.632V377.548H217.193C216.087 377.548 215.533 377.872 215.533 378.52C215.533 378.803 215.628 379.024 215.816 379.184C216.005 379.343 216.248 379.423 216.544 379.423ZM221.202 380.111H220.299V374.828H221.202V380.111ZM220.226 373.427C220.226 373.28 220.27 373.157 220.357 373.056C220.449 372.955 220.582 372.904 220.758 372.904C220.934 372.904 221.067 372.955 221.158 373.056C221.249 373.157 221.295 373.28 221.295 373.427C221.295 373.573 221.249 373.695 221.158 373.793C221.067 373.891 220.934 373.94 220.758 373.94C220.582 373.94 220.449 373.891 220.357 373.793C220.27 373.695 220.226 373.573 220.226 373.427ZM222.413 377.421C222.413 376.903 222.514 376.438 222.716 376.025C222.921 375.611 223.204 375.292 223.565 375.068C223.93 374.843 224.345 374.731 224.811 374.731C225.53 374.731 226.111 374.98 226.554 375.478C227 375.976 227.223 376.638 227.223 377.465V377.528C227.223 378.043 227.123 378.505 226.925 378.915C226.729 379.322 226.448 379.639 226.08 379.867C225.715 380.095 225.296 380.209 224.82 380.209C224.104 380.209 223.523 379.96 223.077 379.462C222.634 378.964 222.413 378.305 222.413 377.484V377.421ZM223.321 377.528C223.321 378.114 223.456 378.585 223.727 378.94C224 379.294 224.365 379.472 224.82 379.472C225.279 379.472 225.644 379.293 225.914 378.935C226.184 378.573 226.319 378.069 226.319 377.421C226.319 376.842 226.181 376.373 225.904 376.015C225.631 375.653 225.266 375.473 224.811 375.473C224.365 375.473 224.005 375.65 223.731 376.005C223.458 376.36 223.321 376.868 223.321 377.528Z" fill="#A3A3A3"/>
<path d="M399.797 374.828V380.722C399.797 381.737 399.336 382.245 398.415 382.245C398.216 382.245 398.033 382.216 397.863 382.157V381.435C397.967 381.461 398.104 381.474 398.273 381.474C398.475 381.474 398.628 381.418 398.732 381.308C398.84 381.2 398.894 381.012 398.894 380.741V374.828H399.797ZM398.801 373.427C398.801 373.284 398.845 373.162 398.933 373.061C399.024 372.957 399.156 372.904 399.328 372.904C399.504 372.904 399.637 372.955 399.729 373.056C399.82 373.157 399.865 373.28 399.865 373.427C399.865 373.573 399.82 373.695 399.729 373.793C399.637 373.891 399.504 373.94 399.328 373.94C399.152 373.94 399.021 373.891 398.933 373.793C398.845 373.695 398.801 373.573 398.801 373.427ZM404.519 379.589C404.167 380.002 403.651 380.209 402.971 380.209C402.408 380.209 401.978 380.046 401.682 379.721C401.389 379.392 401.241 378.907 401.237 378.266V374.828H402.141V378.241C402.141 379.042 402.466 379.443 403.117 379.443C403.807 379.443 404.266 379.185 404.494 378.671V374.828H405.397V380.111H404.538L404.519 379.589ZM407.629 374.828L407.658 375.492C408.062 374.984 408.589 374.731 409.24 374.731C410.357 374.731 410.92 375.36 410.93 376.62V380.111H410.026V376.615C410.023 376.234 409.935 375.953 409.763 375.771C409.593 375.588 409.328 375.497 408.967 375.497C408.674 375.497 408.417 375.575 408.195 375.732C407.974 375.888 407.801 376.093 407.678 376.347V380.111H406.774V374.828H407.629ZM413.195 375.468C413.596 374.976 414.117 374.731 414.758 374.731C415.874 374.731 416.438 375.36 416.447 376.62V380.111H415.544V376.615C415.541 376.234 415.453 375.953 415.28 375.771C415.111 375.588 414.846 375.497 414.484 375.497C414.191 375.497 413.934 375.575 413.713 375.732C413.492 375.888 413.319 376.093 413.195 376.347V380.111H412.292V372.611H413.195V375.468ZM417.561 377.421C417.561 376.903 417.661 376.438 417.863 376.025C418.068 375.611 418.352 375.292 418.713 375.068C419.077 374.843 419.493 374.731 419.958 374.731C420.677 374.731 421.258 374.98 421.701 375.478C422.147 375.976 422.37 376.638 422.37 377.465V377.528C422.37 378.043 422.271 378.505 422.072 378.915C421.877 379.322 421.595 379.639 421.228 379.867C420.863 380.095 420.443 380.209 419.968 380.209C419.252 380.209 418.671 379.96 418.225 379.462C417.782 378.964 417.561 378.305 417.561 377.484V377.421ZM418.469 377.528C418.469 378.114 418.604 378.585 418.874 378.94C419.147 379.294 419.512 379.472 419.968 379.472C420.427 379.472 420.791 379.293 421.062 378.935C421.332 378.573 421.467 378.069 421.467 377.421C421.467 376.842 421.328 376.373 421.052 376.015C420.778 375.653 420.414 375.473 419.958 375.473C419.512 375.473 419.152 375.65 418.879 376.005C418.605 376.36 418.469 376.868 418.469 377.528Z" fill="#A3A3A3"/>
<path d="M11.4336 359.246C11.4336 360.304 11.2529 361.091 10.8916 361.605C10.5303 362.119 9.96549 362.376 9.19727 362.376C8.4388 362.376 7.87728 362.126 7.5127 361.624C7.14811 361.12 6.95931 360.368 6.94629 359.369V358.162C6.94629 357.118 7.12695 356.341 7.48828 355.833C7.84961 355.326 8.41602 355.072 9.1875 355.072C9.95247 355.072 10.5156 355.317 10.877 355.809C11.2383 356.297 11.4238 357.052 11.4336 358.075V359.246ZM10.5303 358.011C10.5303 357.246 10.4229 356.689 10.208 356.341C9.99316 355.99 9.65299 355.814 9.1875 355.814C8.72526 355.814 8.38835 355.988 8.17676 356.336C7.96517 356.685 7.85612 357.22 7.84961 357.943V359.388C7.84961 360.156 7.96029 360.724 8.18164 361.092C8.40625 361.457 8.74479 361.639 9.19727 361.639C9.64323 361.639 9.97363 361.467 10.1885 361.121C10.4066 360.776 10.5205 360.233 10.5303 359.491V358.011Z" fill="#A3A3A3"/>
<path d="M11.6338 290.947H6.97559V290.298L9.43652 287.564C9.80111 287.15 10.0518 286.815 10.1885 286.558C10.3285 286.297 10.3984 286.029 10.3984 285.752C10.3984 285.381 10.2861 285.077 10.0615 284.839C9.83691 284.601 9.53743 284.483 9.16309 284.483C8.71387 284.483 8.36393 284.611 8.11328 284.868C7.86589 285.122 7.74219 285.477 7.74219 285.933H6.83887C6.83887 285.278 7.04883 284.749 7.46875 284.346C7.89193 283.942 8.45671 283.74 9.16309 283.74C9.82389 283.74 10.3464 283.915 10.7305 284.263C11.1146 284.608 11.3066 285.068 11.3066 285.645C11.3066 286.345 10.8607 287.178 9.96875 288.145L8.06445 290.21H11.6338V290.947Z" fill="#A3A3A3"/>
<path d="M10.7891 217.228H11.7754V217.966H10.7891V219.616H9.88086V217.966H6.64355V217.433L9.82715 212.507H10.7891V217.228ZM7.66895 217.228H9.88086V213.742L9.77344 213.937L7.66895 217.228Z" fill="#A3A3A3"/>
<path d="M10.5205 142.359V143.126H10.3545C9.65137 143.139 9.09147 143.347 8.6748 143.751C8.25814 144.155 8.01725 144.723 7.95215 145.455C8.3265 145.025 8.83757 144.811 9.48535 144.811C10.1038 144.811 10.597 145.029 10.9648 145.465C11.3359 145.901 11.5215 146.464 11.5215 147.154C11.5215 147.887 11.3213 148.473 10.9209 148.912C10.5238 149.352 9.98991 149.571 9.31934 149.571C8.639 149.571 8.08724 149.311 7.66406 148.79C7.24089 148.266 7.0293 147.592 7.0293 146.769V146.422C7.0293 145.113 7.30762 144.114 7.86426 143.424C8.42415 142.73 9.25586 142.376 10.3594 142.359H10.5205ZM9.33398 145.562C9.02474 145.562 8.73991 145.655 8.47949 145.841C8.21908 146.026 8.03841 146.259 7.9375 146.539V146.871C7.9375 147.457 8.06934 147.929 8.33301 148.287C8.59668 148.645 8.92546 148.824 9.31934 148.824C9.72624 148.824 10.0452 148.674 10.2764 148.375C10.5107 148.076 10.6279 147.683 10.6279 147.198C10.6279 146.71 10.5091 146.316 10.2715 146.017C10.0371 145.714 9.72461 145.562 9.33398 145.562Z" fill="#A3A3A3"/>
<path d="M11.2871 72.8884C11.2871 73.2432 11.1927 73.559 11.0039 73.8357C10.8184 74.1124 10.5661 74.3289 10.2471 74.4851C10.6182 74.6446 10.9111 74.8774 11.126 75.1833C11.3441 75.4893 11.4531 75.836 11.4531 76.2234C11.4531 76.8386 11.2448 77.3285 10.8281 77.6931C10.4147 78.0577 9.86947 78.24 9.19238 78.24C8.50879 78.24 7.96029 78.0577 7.54688 77.6931C7.13672 77.3253 6.93164 76.8354 6.93164 76.2234C6.93164 75.8393 7.03581 75.4926 7.24414 75.1833C7.45573 74.8741 7.74707 74.6397 8.11816 74.4802C7.80241 74.324 7.55339 74.1075 7.37109 73.8308C7.1888 73.5541 7.09766 73.24 7.09766 72.8884C7.09766 72.2895 7.28971 71.8142 7.67383 71.4626C8.05794 71.1111 8.56413 70.9353 9.19238 70.9353C9.81738 70.9353 10.3219 71.1111 10.7061 71.4626C11.0934 71.8142 11.2871 72.2895 11.2871 72.8884ZM10.5498 76.2039C10.5498 75.8067 10.4229 75.4828 10.1689 75.2322C9.91829 74.9815 9.58952 74.8562 9.18262 74.8562C8.77572 74.8562 8.44857 74.9799 8.20117 75.2273C7.95703 75.4747 7.83496 75.8002 7.83496 76.2039C7.83496 76.6075 7.95378 76.9249 8.19141 77.156C8.43229 77.3871 8.76595 77.5027 9.19238 77.5027C9.61556 77.5027 9.94759 77.3871 10.1885 77.156C10.4294 76.9216 10.5498 76.6042 10.5498 76.2039ZM9.19238 71.6775C8.83757 71.6775 8.54948 71.7882 8.32812 72.0095C8.11003 72.2276 8.00098 72.5255 8.00098 72.9031C8.00098 73.2644 8.1084 73.5574 8.32324 73.782C8.54134 74.0033 8.83105 74.114 9.19238 74.114C9.55371 74.114 9.8418 74.0033 10.0566 73.782C10.2747 73.5574 10.3838 73.2644 10.3838 72.9031C10.3838 72.5417 10.2715 72.2472 10.0469 72.0193C9.82227 71.7914 9.53743 71.6775 9.19238 71.6775Z" fill="#A3A3A3"/>
<path d="M4.3291 8H3.4209V1.97949L1.59961 2.64844V1.82812L4.1875 0.856445H4.3291V8ZM11.4336 4.96777C11.4336 6.02572 11.2529 6.81185 10.8916 7.32617C10.5303 7.84049 9.96549 8.09766 9.19727 8.09766C8.4388 8.09766 7.87728 7.84701 7.5127 7.3457C7.14811 6.84115 6.95931 6.08919 6.94629 5.08984V3.88379C6.94629 2.83887 7.12695 2.0625 7.48828 1.55469C7.84961 1.04688 8.41602 0.792969 9.1875 0.792969C9.95247 0.792969 10.5156 1.03874 10.877 1.53027C11.2383 2.01855 11.4238 2.77376 11.4336 3.7959V4.96777ZM10.5303 3.73242C10.5303 2.96745 10.4229 2.41081 10.208 2.0625C9.99316 1.71094 9.65299 1.53516 9.1875 1.53516C8.72526 1.53516 8.38835 1.70931 8.17676 2.05762C7.96517 2.40592 7.85612 2.94141 7.84961 3.66406V5.10938C7.84961 5.8776 7.96029 6.44564 8.18164 6.81348C8.40625 7.17806 8.74479 7.36035 9.19727 7.36035C9.64323 7.36035 9.97363 7.18783 10.1885 6.84277C10.4066 6.49772 10.5205 5.9541 10.5303 5.21191V3.73242Z" fill="#A3A3A3"/>
<path d="M22 5.94421V360.223" stroke="#F0F0F0"/>
<path d="M216 5.94421V360.223" stroke="#F0F0F0"/>
<path d="M410 5.94421V360.223" stroke="#F0F0F0"/>
<path d="M22 360.223H410" stroke="#F0F0F0"/>
<path d="M22 288.892H410" stroke="#F0F0F0"/>
<path d="M22 217.56H410" stroke="#F0F0F0"/>
<path d="M22 147.418H410" stroke="#F0F0F0"/>
<path d="M22 76.0867H410" stroke="#F0F0F0"/>
<path d="M22 5.94421H410" stroke="#F0F0F0"/>
<path d="M22 253.226C22 253.226 119 183.084 216 183.084C313 183.084 410 40.4211 410 40.4211" stroke="#A6CEE3" stroke-width="2"/>
<ellipse cx="22" cy="253.226" rx="4" ry="4.75542" fill="#A6CEE3"/>
<ellipse cx="216" cy="183.084" rx="4" ry="4.75542" fill="#A6CEE3"/>
<ellipse cx="410" cy="40.4211" rx="4" ry="4.75542" fill="#A6CEE3"/>
<path d="M22 217.56C22 217.56 119 111.752 216 111.752C313 111.752 410 5.94421 410 5.94421" stroke="#1F78B4" stroke-width="2"/>
<ellipse cx="22" cy="217.56" rx="4" ry="4.75542" fill="#1F78B4"/>
<ellipse cx="216" cy="111.752" rx="4" ry="4.75542" fill="#1F78B4"/>
<ellipse cx="410" cy="5.94426" rx="4" ry="4.75542" fill="#1F78B4"/>
<path d="M22 253.226C22 253.226 119 147.418 216 147.418C313 147.418 410 5.94421 410 5.94421" stroke="#B2DF8A" stroke-width="2"/>
<ellipse cx="22" cy="253.226" rx="4" ry="4.75542" fill="#B2DF8A"/>
<ellipse cx="216" cy="147.418" rx="4" ry="4.75542" fill="#B2DF8A"/>
<ellipse cx="410" cy="5.94426" rx="4" ry="4.75542" fill="#B2DF8A"/>
</svg>
