<svg width="1992" height="1769" viewBox="0 0 1992 1769" fill="none" xmlns="http://www.w3.org/2000/svg">
<g clip-path="url(#clip0)">
<path d="M1943.68 1278.13H85.1458C72.4589 1278.11 60.2957 1272.98 51.3247 1263.85C42.3537 1254.72 37.3076 1242.35 37.2932 1229.44V63.4547C37.3036 53.9981 41.0003 44.9318 47.5724 38.2449C54.1446 31.5579 63.0554 27.7963 72.35 27.7854H1955.87C1965.32 27.7963 1974.39 31.6229 1981.07 38.4254C1987.76 45.228 1991.52 54.4511 1991.53 64.0714V1229.44C1991.51 1242.35 1986.47 1254.72 1977.5 1263.85C1968.53 1272.98 1956.36 1278.11 1943.68 1278.13V1278.13Z" fill="#F2F2F2"/>
<path d="M1880.87 1222.55H157.211C131.943 1222.55 111.387 1202.85 111.387 1178.64V162.236C111.387 144.276 126.62 129.665 145.343 129.665H1892.18C1911.21 129.665 1926.7 144.517 1926.7 162.772V1178.64C1926.7 1202.85 1906.14 1222.55 1880.87 1222.55Z" fill="white"/>
<path d="M1991.53 74.0942H37.2932V49.1477C37.3116 36.1135 42.3784 23.6189 51.382 14.4051C60.3855 5.19135 72.5906 0.0108078 85.3196 0H1943.5C1956.23 0.0106979 1968.44 5.1912 1977.44 14.405C1986.44 23.6188 1991.51 36.1134 1991.53 49.1477V74.0942Z" fill="#3F3D56"/>
<path d="M125.28 46.309C132.953 46.309 139.173 42.1623 139.173 37.0472C139.173 31.932 132.953 27.7854 125.28 27.7854C117.607 27.7854 111.387 31.932 111.387 37.0472C111.387 42.1623 117.607 46.309 125.28 46.309Z" fill="white"/>
<path d="M176.22 46.309C181.335 46.309 185.482 42.1623 185.482 37.0472C185.482 31.932 181.335 27.7854 176.22 27.7854C171.105 27.7854 166.958 31.932 166.958 37.0472C166.958 42.1623 171.105 46.309 176.22 46.309Z" fill="white"/>
<path d="M417.026 750.204C457.947 750.204 491.12 719.104 491.12 680.741C491.12 642.377 457.947 611.277 417.026 611.277C376.105 611.277 342.932 642.377 342.932 680.741C342.932 719.104 376.105 750.204 417.026 750.204Z" fill="#FFB8B8"/>
<path d="M176.22 1552.61L194.677 1583.76L324.408 1527.86L297.166 1481.88L176.22 1552.61Z" fill="#FFB8B8"/>
<path d="M179.836 1537.46L216.212 1596.93L216.213 1596.93C219.257 1601.9 221.253 1607.41 222.086 1613.13C222.919 1618.85 222.574 1624.67 221.069 1630.26C219.565 1635.85 216.93 1641.1 213.317 1645.71C209.704 1650.32 205.182 1654.2 200.01 1657.13L198.73 1657.86L139.173 1560.49L179.836 1537.46Z" fill="#2F2E41"/>
<path d="M389.246 1657.86L420.624 1657.86L435.55 1518.93L389.241 1518.93L389.246 1657.86Z" fill="#FFB8B8"/>
<path d="M379.979 1648.6L447.859 1648.6H447.862C453.542 1648.6 459.168 1649.76 464.416 1652.01C469.664 1654.26 474.433 1657.57 478.45 1661.73C482.467 1665.9 485.654 1670.84 487.828 1676.28C490.001 1681.72 491.12 1687.55 491.12 1693.44V1694.9L379.981 1694.91L379.979 1648.6Z" fill="#2F2E41"/>
<path d="M241.857 1574.5C239.82 1574.5 237.812 1574.02 235.995 1573.09C234.178 1572.16 232.603 1570.82 231.397 1569.16L197.273 1522.33C196.232 1520.9 195.488 1519.27 195.087 1517.54C194.686 1515.82 194.635 1514.03 194.939 1512.28C195.242 1510.53 195.893 1508.86 196.852 1507.38C197.811 1505.89 199.058 1504.62 200.518 1503.63L352.368 1401.15L260.744 1157.72L456.68 1174.06L463.279 1383.25C463.898 1402.3 459.379 1421.16 450.205 1437.82C441.032 1454.48 427.548 1468.3 411.199 1477.81L248.345 1572.74C246.374 1573.89 244.135 1574.5 241.857 1574.5V1574.5Z" fill="#2F2E41"/>
<path d="M389.594 1630.07C386.444 1630.07 383.418 1628.74 381.154 1626.37C378.889 1623.99 377.561 1620.76 377.449 1617.35L370.717 1412.55L454.073 1407.79L447.436 1614.07C447.338 1617.34 446.12 1620.45 444.02 1622.8C441.919 1625.14 439.086 1626.56 436.073 1626.77L390.422 1630.04C390.145 1630.06 389.869 1630.07 389.594 1630.07Z" fill="#2F2E41"/>
<path d="M482.488 1213.29C460.061 1213.29 381.726 1187.04 354.531 1177.69C350.463 1181.08 328.113 1198.46 302.025 1195.29C285.927 1193.32 271.756 1183.84 259.905 1167.1C233.733 1130.14 266.058 971.64 297.784 845.181C304.145 819.619 319.781 797.619 341.406 783.805C363.032 769.991 388.962 765.439 413.746 771.106V771.106C431.708 775.232 448.21 784.489 461.395 797.836C474.581 811.184 483.929 828.093 488.388 846.663C494.361 871.965 489.223 901.726 485.471 923.46C483.707 933.677 482.314 941.748 482.79 945.714C484.631 961.042 494.861 1201.44 488.283 1211.71C487.583 1212.8 485.557 1213.29 482.488 1213.29Z" fill="#1F78B4"/>
<path d="M395.405 1216.14C399.003 1213.38 401.97 1209.85 404.096 1205.78C406.223 1201.71 407.458 1197.21 407.714 1192.6C407.971 1187.98 407.242 1183.37 405.58 1179.08C403.918 1174.78 401.363 1170.92 398.094 1167.76L399.48 879.869L333.67 891.16L353.001 1170.59C348.206 1176.6 345.716 1184.21 346.005 1191.99C346.293 1199.76 349.339 1207.16 354.566 1212.77C359.793 1218.39 366.837 1221.83 374.364 1222.45C381.891 1223.07 389.378 1220.83 395.405 1216.14V1216.14Z" fill="#FFB8B8"/>
<path d="M411.026 1065.1H339.196C335.766 1065.09 332.477 1063.69 330.041 1061.18C327.604 1058.68 326.215 1055.28 326.174 1051.73L324.411 849.811C324.349 842.829 325.624 835.904 328.16 829.437C330.697 822.969 334.445 817.087 339.187 812.13C343.93 807.174 349.573 803.242 355.791 800.561C362.008 797.881 368.677 796.505 375.41 796.513C382.144 796.522 388.809 797.914 395.02 800.611C401.232 803.307 406.866 807.254 411.597 812.222C416.328 817.19 420.062 823.082 422.583 829.556C425.104 836.03 426.362 842.959 426.285 849.94L424.047 1051.76C423.996 1055.31 422.603 1058.7 420.168 1061.19C417.733 1063.69 414.45 1065.09 411.026 1065.1V1065.1Z" fill="#1F78B4"/>
<path d="M400.182 750.204C369.23 750.263 340.029 724.723 334.666 692.899C332.745 680.397 333.611 667.601 337.196 655.505C341.088 641.735 347.763 628.996 356.77 618.147C365.778 607.298 376.909 598.591 389.412 592.613C401.916 586.635 415.502 583.525 429.255 583.492C443.008 583.46 456.607 586.506 469.137 592.425C477.417 596.337 485.573 601.954 489.364 610.578C493.156 619.201 490.783 631.253 482.489 635.133C477.069 637.668 470.267 636.423 465.459 640.063C458.552 645.291 460.33 656.416 463.414 664.72C466.498 673.024 469.986 683.072 464.816 690.157C459.999 696.758 450.369 696.553 442.785 694.069C435.2 691.584 427.713 687.423 419.805 688.269C408.271 689.504 399.983 701.481 398.449 713.478C396.914 725.476 400.526 737.468 404.092 748.985L400.182 750.204Z" fill="#2F2E41"/>
<path d="M222.529 46.309C227.644 46.309 231.791 42.1623 231.791 37.0472C231.791 31.932 227.644 27.7854 222.529 27.7854C217.414 27.7854 213.267 31.932 213.267 37.0472C213.267 42.1623 217.414 46.309 222.529 46.309Z" fill="white"/>
<path d="M981.33 351.948H639.974C634.885 351.948 630.004 349.996 626.406 346.522C622.807 343.048 620.785 338.337 620.785 333.424C620.785 328.511 622.807 323.8 626.406 320.326C630.004 316.852 634.885 314.901 639.974 314.901H981.33C986.419 314.901 991.3 316.852 994.898 320.326C998.497 323.8 1000.52 328.511 1000.52 333.424C1000.52 338.337 998.497 343.048 994.898 346.522C991.3 349.996 986.419 351.948 981.33 351.948V351.948Z" fill="#CCCCCC"/>
<path d="M1398.11 351.948H1056.75C1051.66 351.948 1046.78 349.996 1043.19 346.522C1039.59 343.048 1037.57 338.337 1037.57 333.424C1037.57 328.511 1039.59 323.8 1043.19 320.326C1046.78 316.852 1051.66 314.901 1056.75 314.901H1398.11C1403.2 314.901 1408.08 316.852 1411.68 320.326C1415.28 323.8 1417.3 328.511 1417.3 333.424C1417.3 338.337 1415.28 343.048 1411.68 346.522C1408.08 349.996 1403.2 351.948 1398.11 351.948V351.948Z" fill="#CCCCCC"/>
<path d="M1398.18 426.042H806.613C801.543 426.042 796.681 424.09 793.096 420.616C789.511 417.142 787.498 412.431 787.498 407.518C787.498 402.605 789.511 397.894 793.096 394.42C796.681 390.946 801.543 388.995 806.613 388.995H1398.18C1403.25 388.995 1408.11 390.946 1411.7 394.42C1415.28 397.894 1417.3 402.605 1417.3 407.518C1417.3 412.431 1415.28 417.142 1411.7 420.616C1408.11 424.09 1403.25 426.042 1398.18 426.042Z" fill="#CCCCCC"/>
<path d="M981.306 277.853H639.95C634.865 277.847 629.991 275.893 626.397 272.42C622.804 268.947 620.785 264.239 620.785 259.33C620.785 254.421 622.804 249.713 626.397 246.24C629.991 242.767 634.865 240.812 639.95 240.806H981.306C983.828 240.803 986.326 241.28 988.657 242.21C990.987 243.139 993.106 244.503 994.89 246.224C996.674 247.944 998.09 249.987 999.055 252.236C1000.02 254.485 1000.52 256.895 1000.52 259.33C1000.52 261.764 1000.02 264.175 999.055 266.424C998.09 268.673 996.674 270.716 994.89 272.436C993.106 274.157 990.987 275.521 988.657 276.45C986.326 277.38 983.828 277.856 981.306 277.853V277.853Z" fill="#CCCCCC"/>
<path d="M1166.06 277.854H1066.53C1061.3 277.854 1056.29 275.902 1052.6 272.428C1048.9 268.954 1046.83 264.243 1046.83 259.33C1046.83 254.417 1048.9 249.706 1052.6 246.232C1056.29 242.758 1061.3 240.806 1066.53 240.806H1166.06C1171.28 240.806 1176.29 242.758 1179.98 246.232C1183.68 249.706 1185.75 254.417 1185.75 259.33C1185.75 264.243 1183.68 268.954 1179.98 272.428C1176.29 275.902 1171.28 277.854 1166.06 277.854Z" fill="#CCCCCC"/>
<path d="M739.989 426.042H640.46C635.239 426.036 630.235 424.081 626.546 420.608C622.858 417.135 620.785 412.427 620.785 407.518C620.785 402.609 622.858 397.901 626.546 394.428C630.235 390.955 635.239 389.001 640.46 388.995H739.989C742.578 388.992 745.142 389.469 747.535 390.398C749.928 391.328 752.102 392.692 753.934 394.412C755.766 396.132 757.219 398.175 758.21 400.424C759.202 402.673 759.712 405.084 759.712 407.518C759.712 409.953 759.202 412.363 758.21 414.612C757.219 416.861 755.766 418.904 753.934 420.624C752.102 422.345 749.928 423.709 747.535 424.638C745.142 425.568 742.578 426.045 739.989 426.042Z" fill="#CCCCCC"/>
<path d="M981.33 1037.32H639.974C634.885 1037.32 630.004 1035.37 626.406 1031.89C622.807 1028.42 620.785 1023.71 620.785 1018.8C620.785 1013.88 622.807 1009.17 626.406 1005.7C630.004 1002.22 634.885 1000.27 639.974 1000.27H981.33C983.85 1000.27 986.345 1000.75 988.673 1001.68C991.001 1002.61 993.116 1003.98 994.898 1005.7C996.68 1007.42 998.093 1009.46 999.058 1011.71C1000.02 1013.95 1000.52 1016.36 1000.52 1018.8C1000.52 1021.23 1000.02 1023.64 999.058 1025.88C998.093 1028.13 996.68 1030.17 994.898 1031.89C993.116 1033.61 991.001 1034.98 988.673 1035.91C986.345 1036.84 983.85 1037.32 981.33 1037.32V1037.32Z" fill="#CCCCCC"/>
<path d="M1398.11 1037.32H1056.75C1051.66 1037.32 1046.78 1035.37 1043.19 1031.89C1039.59 1028.42 1037.57 1023.71 1037.57 1018.8C1037.57 1013.88 1039.59 1009.17 1043.19 1005.7C1046.78 1002.22 1051.66 1000.27 1056.75 1000.27H1398.11C1400.63 1000.27 1403.12 1000.75 1405.45 1001.68C1407.78 1002.61 1409.9 1003.98 1411.68 1005.7C1413.46 1007.42 1414.87 1009.46 1415.84 1011.71C1416.8 1013.95 1417.3 1016.36 1417.3 1018.8C1417.3 1021.23 1416.8 1023.64 1415.84 1025.88C1414.87 1028.13 1413.46 1030.17 1411.68 1031.89C1409.9 1033.61 1407.78 1034.98 1405.45 1035.91C1403.12 1036.84 1400.63 1037.32 1398.11 1037.32V1037.32Z" fill="#CCCCCC"/>
<path d="M1398.16 1111.41H806.612C801.543 1111.41 796.681 1109.46 793.096 1105.99C789.511 1102.51 787.498 1097.8 787.498 1092.89C787.498 1087.98 789.511 1083.27 793.096 1079.79C796.681 1076.32 801.543 1074.37 806.612 1074.37H1398.16C1400.67 1074.36 1403.16 1074.84 1405.48 1075.77C1407.8 1076.7 1409.91 1078.06 1411.69 1079.78C1413.47 1081.5 1414.88 1083.55 1415.84 1085.8C1416.8 1088.04 1417.3 1090.46 1417.3 1092.89C1417.3 1095.32 1416.8 1097.74 1415.84 1099.98C1414.88 1102.23 1413.47 1104.28 1411.69 1106C1409.91 1107.72 1407.8 1109.08 1405.48 1110.01C1403.16 1110.94 1400.67 1111.42 1398.16 1111.41Z" fill="#CCCCCC"/>
<path d="M981.33 963.225H639.974C634.885 963.225 630.004 961.273 626.406 957.8C622.807 954.326 620.785 949.614 620.785 944.701C620.785 939.789 622.807 935.077 626.406 931.603C630.004 928.13 634.885 926.178 639.974 926.178H981.33C986.419 926.178 991.3 928.13 994.898 931.603C998.497 935.077 1000.52 939.789 1000.52 944.701C1000.52 949.614 998.497 954.326 994.898 957.8C991.3 961.273 986.419 963.225 981.33 963.225Z" fill="#CCCCCC"/>
<path d="M1166.06 963.225H1066.53C1061.3 963.225 1056.29 961.273 1052.6 957.8C1048.9 954.326 1046.83 949.614 1046.83 944.702C1046.83 939.789 1048.9 935.077 1052.6 931.603C1056.29 928.13 1061.3 926.178 1066.53 926.178H1166.06C1171.28 926.178 1176.29 928.13 1179.98 931.603C1183.68 935.077 1185.75 939.789 1185.75 944.702C1185.75 949.614 1183.68 954.326 1179.98 957.8C1176.29 961.273 1171.28 963.225 1166.06 963.225V963.225Z" fill="#CCCCCC"/>
<path d="M739.993 1111.41H640.48C635.257 1111.41 630.247 1109.46 626.554 1105.99C622.86 1102.51 620.785 1097.8 620.785 1092.89C620.785 1087.98 622.86 1083.27 626.554 1079.79C630.247 1076.32 635.257 1074.37 640.48 1074.37H739.993C742.581 1074.36 745.145 1074.84 747.537 1075.77C749.929 1076.7 752.103 1078.06 753.935 1079.78C755.766 1081.5 757.219 1083.55 758.211 1085.8C759.202 1088.04 759.712 1090.46 759.712 1092.89C759.712 1095.32 759.202 1097.74 758.211 1099.98C757.219 1102.23 755.766 1104.28 753.935 1106C752.103 1107.72 749.929 1109.08 747.537 1110.01C745.145 1110.94 742.581 1111.42 739.993 1111.41Z" fill="#CCCCCC"/>
<path d="M888.689 833.56C881.392 833.577 874.384 830.657 869.191 825.437L739.937 695.473C737.4 692.922 735.385 689.883 734.01 686.532C732.635 683.182 731.927 679.587 731.927 675.955C731.927 672.324 732.635 668.729 734.01 665.379C735.385 662.028 737.4 658.989 739.937 656.437L868.669 526.998C874.032 521.632 881.257 518.636 888.776 518.66C896.295 518.684 903.502 521.726 908.831 527.127C914.166 532.571 917.162 539.948 917.162 547.639C917.162 555.33 914.167 562.707 908.832 568.151L813.173 665.555C810.193 668.597 808.519 672.718 808.519 677.015C808.519 681.312 810.193 685.433 813.173 688.475L908.313 785.35C912.198 789.298 914.845 794.332 915.918 799.813C916.991 805.294 916.441 810.976 914.34 816.14C912.238 821.303 908.679 825.714 904.112 828.816C899.546 831.917 894.178 833.568 888.689 833.56V833.56Z" fill="#1F78B4"/>
<path d="M1093.84 833.56C1088.35 833.568 1082.98 831.917 1078.41 828.816C1073.85 825.714 1070.29 821.303 1068.19 816.14C1066.09 810.976 1065.54 805.294 1066.61 799.813C1067.68 794.332 1070.33 789.298 1074.21 785.35L1169.35 688.475C1172.33 685.433 1174 681.312 1174 677.015C1174 672.719 1172.33 668.597 1169.35 665.556L1073.69 568.151C1071.05 565.457 1068.95 562.26 1067.52 558.74C1066.09 555.221 1065.35 551.449 1065.35 547.639C1065.35 543.83 1066.09 540.058 1067.52 536.538C1068.95 533.019 1071.05 529.821 1073.69 527.127V527.127C1079.02 521.727 1086.23 518.684 1093.75 518.66C1101.27 518.636 1108.49 521.632 1113.85 526.998L1242.58 656.437C1245.11 658.989 1247.13 662.028 1248.5 665.379C1249.88 668.729 1250.59 672.324 1250.59 675.955C1250.59 679.587 1249.88 683.182 1248.5 686.532C1247.13 689.883 1245.11 692.922 1242.58 695.473L1113.33 825.437C1108.14 830.657 1101.13 833.576 1093.84 833.56Z" fill="#1F78B4"/>
</g>
<defs>
<clipPath id="clip0">
<rect width="1991.28" height="1769" fill="white" transform="translate(0.246094)"/>
</clipPath>
</defs>
</svg>
