<svg width="425" height="180" viewBox="0 0 425 180" fill="none" xmlns="http://www.w3.org/2000/svg">
<path d="M21.5365 160.851H424" stroke="black"/>
<path d="M88.6138 166.596V160.851" stroke="black"/>
<path d="M91.3032 173.957C91.3032 175.227 91.0864 176.17 90.6528 176.787C90.2192 177.404 89.5415 177.713 88.6196 177.713C87.7095 177.713 87.0356 177.412 86.5981 176.811C86.1606 176.205 85.9341 175.303 85.9184 174.104V172.656C85.9184 171.402 86.1352 170.471 86.5688 169.861C87.0024 169.252 87.6821 168.947 88.6079 168.947C89.5259 168.947 90.2017 169.242 90.6352 169.832C91.0688 170.418 91.2915 171.324 91.3032 172.551V173.957ZM90.2192 172.475C90.2192 171.557 90.0903 170.889 89.8325 170.471C89.5747 170.049 89.1665 169.838 88.6079 169.838C88.0532 169.838 87.6489 170.047 87.395 170.465C87.1411 170.883 87.0102 171.526 87.0024 172.393V174.127C87.0024 175.049 87.1352 175.731 87.4009 176.172C87.6704 176.609 88.0767 176.828 88.6196 176.828C89.1548 176.828 89.5513 176.621 89.8091 176.207C90.0708 175.793 90.2075 175.141 90.2192 174.25V172.475Z" fill="black"/>
<path d="M222.768 166.596V160.851" stroke="black"/>
<path d="M223.671 177.596H222.581V170.371L220.395 171.174V170.19L223.501 169.024H223.671V177.596Z" fill="black"/>
<path d="M356.923 166.596V160.851" stroke="black"/>
<path d="M359.852 177.596H354.263V176.817L357.216 173.535C357.653 173.039 357.954 172.637 358.118 172.328C358.286 172.016 358.37 171.693 358.37 171.361C358.37 170.916 358.235 170.551 357.966 170.266C357.696 169.981 357.337 169.838 356.888 169.838C356.349 169.838 355.929 169.992 355.628 170.301C355.331 170.606 355.183 171.031 355.183 171.578H354.099C354.099 170.793 354.35 170.158 354.854 169.674C355.362 169.19 356.04 168.947 356.888 168.947C357.681 168.947 358.308 169.156 358.768 169.574C359.229 169.988 359.46 170.541 359.46 171.233C359.46 172.072 358.925 173.072 357.854 174.233L355.569 176.711H359.852V177.596Z" fill="black"/>
<path d="M35 7.65967V160.851" stroke="black"/>
<path d="M28.4375 160.851H35" stroke="black"/>
<path d="M22.2891 156.723C22.2891 157.992 22.0723 158.936 21.6387 159.553C21.2051 160.17 20.5273 160.479 19.6055 160.479C18.6953 160.479 18.0215 160.178 17.584 159.576C17.1465 158.971 16.9199 158.069 16.9043 156.869V155.422C16.9043 154.168 17.1211 153.237 17.5547 152.627C17.9883 152.018 18.668 151.713 19.5937 151.713C20.5117 151.713 21.1875 152.008 21.6211 152.598C22.0547 153.184 22.2773 154.09 22.2891 155.317V156.723ZM21.2051 155.24C21.2051 154.323 21.0762 153.655 20.8184 153.237C20.5605 152.815 20.1523 152.604 19.5937 152.604C19.0391 152.604 18.6348 152.813 18.3809 153.231C18.1269 153.649 17.9961 154.291 17.9883 155.158V156.893C17.9883 157.815 18.1211 158.496 18.3867 158.938C18.6562 159.375 19.0625 159.594 19.6055 159.594C20.1406 159.594 20.5371 159.387 20.7949 158.973C21.0566 158.559 21.1934 157.906 21.2051 157.016V155.24Z" fill="black"/>
<path d="M28.4375 122.553H35" stroke="black"/>
<path d="M15.791 122.064H10.2012V121.285L13.1543 118.003C13.5918 117.507 13.8926 117.105 14.0566 116.796C14.2246 116.484 14.3086 116.161 14.3086 115.829C14.3086 115.384 14.1738 115.019 13.9043 114.734C13.6348 114.449 13.2754 114.306 12.8262 114.306C12.2871 114.306 11.8672 114.46 11.5664 114.769C11.2695 115.074 11.1211 115.499 11.1211 116.046H10.0371C10.0371 115.261 10.2891 114.626 10.793 114.142C11.3008 113.658 11.9785 113.415 12.8262 113.415C13.6191 113.415 14.2461 113.624 14.707 114.042C15.168 114.456 15.3984 115.009 15.3984 115.701C15.3984 116.54 14.8633 117.54 13.793 118.701L11.5078 121.179H15.791V122.064ZM17.4375 117.786L17.8711 113.533H22.2422V114.535H18.791L18.5332 116.861C18.9512 116.615 19.4258 116.492 19.957 116.492C20.7344 116.492 21.3516 116.749 21.8086 117.265C22.2656 117.777 22.4941 118.47 22.4941 119.345C22.4941 120.224 22.2559 120.917 21.7793 121.425C21.3066 121.929 20.6445 122.181 19.793 122.181C19.0391 122.181 18.4238 121.972 17.9473 121.554C17.4707 121.136 17.1992 120.558 17.1328 119.82H18.1582C18.2246 120.308 18.3984 120.677 18.6797 120.927C18.9609 121.173 19.332 121.296 19.793 121.296C20.2969 121.296 20.6914 121.124 20.9766 120.781C21.2656 120.437 21.4101 119.962 21.4101 119.357C21.4101 118.786 21.2539 118.329 20.9414 117.986C20.6328 117.638 20.2207 117.464 19.7051 117.464C19.2324 117.464 18.8613 117.568 18.5918 117.775L18.3047 118.009L17.4375 117.786Z" fill="black"/>
<path d="M28.4375 84.2552H35" stroke="black"/>
<path d="M10.6992 79.4886L11.1328 75.2347H15.5039V76.2367H12.0527L11.7949 78.5629C12.2129 78.3168 12.6875 78.1937 13.2187 78.1937C13.9961 78.1937 14.6133 78.4515 15.0703 78.9672C15.5273 79.4789 15.7559 80.1722 15.7559 81.0472C15.7559 81.9261 15.5176 82.6195 15.041 83.1273C14.5684 83.6312 13.9062 83.8832 13.0547 83.8832C12.3008 83.8832 11.6855 83.6742 11.209 83.2562C10.7324 82.8383 10.4609 82.2601 10.3945 81.5219H11.4199C11.4863 82.0101 11.6601 82.3793 11.9414 82.6293C12.2226 82.8754 12.5937 82.9984 13.0547 82.9984C13.5586 82.9984 13.9531 82.8265 14.2383 82.4828C14.5273 82.139 14.6719 81.6644 14.6719 81.059C14.6719 80.4886 14.5156 80.0316 14.2031 79.6879C13.8945 79.3402 13.4824 79.1664 12.9668 79.1664C12.4941 79.1664 12.123 79.2699 11.8535 79.4769L11.5664 79.7113L10.6992 79.4886ZM22.2891 80.1273C22.2891 81.3969 22.0723 82.3402 21.6387 82.9574C21.2051 83.5746 20.5273 83.8832 19.6055 83.8832C18.6953 83.8832 18.0215 83.5824 17.584 82.9808C17.1465 82.3754 16.9199 81.473 16.9043 80.2738V78.8265C16.9043 77.5726 17.1211 76.641 17.5547 76.0316C17.9883 75.4222 18.668 75.1176 19.5937 75.1176C20.5117 75.1176 21.1875 75.4125 21.6211 76.0023C22.0547 76.5883 22.2773 77.4945 22.2891 78.7211V80.1273ZM21.2051 78.6449C21.2051 77.7269 21.0762 77.059 20.8184 76.641C20.5605 76.2191 20.1523 76.0082 19.5937 76.0082C19.0391 76.0082 18.6348 76.2172 18.3809 76.6351C18.1269 77.0531 17.9961 77.6957 17.9883 78.5629V80.2972C17.9883 81.2191 18.1211 81.9008 18.3867 82.3422C18.6562 82.7797 19.0625 82.9984 19.6055 82.9984C20.1406 82.9984 20.5371 82.7914 20.7949 82.3773C21.0566 81.9633 21.1934 81.3109 21.2051 80.4203V78.6449Z" fill="black"/>
<path d="M28.4375 45.9574H35" stroke="black"/>
<path d="M15.709 37.5461L12.1758 45.468H11.0391L14.5605 37.8274H9.94335V36.9368H15.709V37.5461ZM17.4375 41.1907L17.8711 36.9368H22.2422V37.9387H18.791L18.5332 40.2649C18.9512 40.0188 19.4258 39.8958 19.957 39.8958C20.7344 39.8958 21.3516 40.1536 21.8086 40.6692C22.2656 41.1809 22.4941 41.8743 22.4941 42.7493C22.4941 43.6282 22.2559 44.3215 21.7793 44.8293C21.3066 45.3333 20.6445 45.5852 19.793 45.5852C19.0391 45.5852 18.4238 45.3762 17.9473 44.9583C17.4707 44.5403 17.1992 43.9622 17.1328 43.2239H18.1582C18.2246 43.7122 18.3984 44.0813 18.6797 44.3313C18.9609 44.5774 19.332 44.7004 19.793 44.7004C20.2969 44.7004 20.6914 44.5286 20.9766 44.1848C21.2656 43.8411 21.4101 43.3665 21.4101 42.761C21.4101 42.1907 21.2539 41.7336 20.9414 41.3899C20.6328 41.0422 20.2207 40.8684 19.7051 40.8684C19.2324 40.8684 18.8613 40.9719 18.5918 41.179L18.3047 41.4133L17.4375 41.1907Z" fill="black"/>
<path d="M28.4375 7.65967H35" stroke="black"/>
<path d="M7.02539 11H5.93555V3.77539L3.75 4.57812V3.59375L6.85547 2.42773H7.02539V11ZM15.5508 7.36133C15.5508 8.63086 15.334 9.57422 14.9004 10.1914C14.4668 10.8086 13.7891 11.1172 12.8672 11.1172C11.957 11.1172 11.2832 10.8164 10.8457 10.2148C10.4082 9.60938 10.1816 8.70703 10.166 7.50781V6.06055C10.166 4.80664 10.3828 3.875 10.8164 3.26562C11.25 2.65625 11.9297 2.35156 12.8555 2.35156C13.7734 2.35156 14.4492 2.64648 14.8828 3.23633C15.3164 3.82227 15.5391 4.72852 15.5508 5.95508V7.36133ZM14.4668 5.87891C14.4668 4.96094 14.3379 4.29297 14.0801 3.875C13.8223 3.45312 13.4141 3.24219 12.8555 3.24219C12.3008 3.24219 11.8965 3.45117 11.6426 3.86914C11.3887 4.28711 11.2578 4.92969 11.25 5.79688V7.53125C11.25 8.45312 11.3828 9.13477 11.6484 9.57617C11.918 10.0137 12.3242 10.2324 12.8672 10.2324C13.4023 10.2324 13.7988 10.0254 14.0566 9.61133C14.3184 9.19727 14.4551 8.54492 14.4668 7.6543V5.87891ZM22.2891 7.36133C22.2891 8.63086 22.0723 9.57422 21.6387 10.1914C21.2051 10.8086 20.5273 11.1172 19.6055 11.1172C18.6953 11.1172 18.0215 10.8164 17.584 10.2148C17.1465 9.60938 16.9199 8.70703 16.9043 7.50781V6.06055C16.9043 4.80664 17.1211 3.875 17.5547 3.26562C17.9883 2.65625 18.668 2.35156 19.5938 2.35156C20.5117 2.35156 21.1875 2.64648 21.6211 3.23633C22.0547 3.82227 22.2773 4.72852 22.2891 5.95508V7.36133ZM21.2051 5.87891C21.2051 4.96094 21.0762 4.29297 20.8184 3.875C20.5605 3.45312 20.1523 3.24219 19.5938 3.24219C19.0391 3.24219 18.6348 3.45117 18.3809 3.86914C18.127 4.28711 17.9961 4.92969 17.9883 5.79688V7.53125C17.9883 8.45312 18.1211 9.13477 18.3867 9.57617C18.6562 10.0137 19.0625 10.2324 19.6055 10.2324C20.1406 10.2324 20.5371 10.0254 20.7949 9.61133C21.0566 9.19727 21.1934 8.54492 21.2051 7.6543V5.87891Z" fill="black"/>
<path d="M35 160.851H424" stroke="#CCCCCC"/>
<path d="M35 122.553H424" stroke="#CCCCCC"/>
<path d="M35 84.2552H424" stroke="#CCCCCC"/>
<path d="M35 45.9574H424" stroke="#CCCCCC"/>
<path d="M35 7.65967H424" stroke="#CCCCCC"/>
<path d="M99.8333 7.65967V160.851" stroke="#CCCCCC"/>
<path d="M229.5 7.65967V160.851" stroke="#CCCCCC"/>
<path d="M359.167 7.65967V160.851" stroke="#CCCCCC"/>
<path d="M35 7.65967V160.851" stroke="#CCCCCC"/>
<path d="M424 7.65967V160.851" stroke="#CCCCCC"/>
<path d="M56 84.2552H87.3052V160.851H56V84.2552Z" fill="#356CC0"/>
<path d="M180.803 35.2341H212.108V160.851H180.803V35.2341Z" fill="#356CC0"/>
<path d="M305.607 96.5106H336.912V160.851H305.607V96.5106Z" fill="#356CC0"/>
<path d="M93 38.2979H124.232V160.851H93V38.2979Z" fill="#1D8692"/>
<path d="M217.511 117.957H248.743V160.851H217.511V117.957Z" fill="#1D8692"/>
<path d="M342.023 7.65967H373.255V160.851H342.023V7.65967Z" fill="#1D8692"/>
<path d="M130 26.0425H161.159V160.851H130V26.0425Z" fill="#979589"/>
<path d="M254.219 39.8297H285.378V160.851H254.219V39.8297Z" fill="#979589"/>
<path d="M378.439 117.957H409.597V160.851H378.439V117.957Z" fill="#979589"/>
</svg>
