<svg width="138" height="19" viewBox="0 0 138 19" fill="none" xmlns="http://www.w3.org/2000/svg">
<path d="M7.52259 18.24C6.22659 18.24 4.97059 18.056 3.75459 17.688C2.55459 17.32 1.60259 16.832 0.898594 16.224L1.97859 13.8C2.66659 14.344 3.50659 14.792 4.49859 15.144C5.50659 15.48 6.51459 15.648 7.52259 15.648C8.77059 15.648 9.69859 15.448 10.3066 15.048C10.9306 14.648 11.2426 14.12 11.2426 13.464C11.2426 12.984 11.0666 12.592 10.7146 12.288C10.3786 11.968 9.94659 11.72 9.41859 11.544C8.89059 11.368 8.17059 11.168 7.25859 10.944C5.97859 10.64 4.93859 10.336 4.13859 10.032C3.35459 9.728 2.67459 9.256 2.09859 8.616C1.53859 7.96 1.25859 7.08 1.25859 5.976C1.25859 5.048 1.50659 4.208 2.00259 3.456C2.51459 2.688 3.27459 2.08 4.28259 1.632C5.30659 1.184 6.55459 0.959999 8.02659 0.959999C9.05059 0.959999 10.0586 1.088 11.0506 1.344C12.0426 1.6 12.8986 1.968 13.6186 2.448L12.6346 4.872C11.8986 4.44 11.1306 4.112 10.3306 3.888C9.53059 3.664 8.75459 3.552 8.00259 3.552C6.77059 3.552 5.85059 3.76 5.24259 4.176C4.65059 4.592 4.35459 5.144 4.35459 5.832C4.35459 6.312 4.52259 6.704 4.85859 7.008C5.21059 7.312 5.65059 7.552 6.17859 7.728C6.70659 7.904 7.42659 8.104 8.33859 8.328C9.58659 8.616 10.6106 8.92 11.4106 9.24C12.2106 9.544 12.8906 10.016 13.4506 10.656C14.0266 11.296 14.3146 12.16 14.3146 13.248C14.3146 14.176 14.0586 15.016 13.5466 15.768C13.0506 16.52 12.2906 17.12 11.2666 17.568C10.2426 18.016 8.99459 18.24 7.52259 18.24ZM17.4083 1.2H20.5283V18H17.4083V1.2ZM40.5044 18L40.4804 6.864L34.9604 16.08H33.5684L28.0484 7.008V18H25.0724V1.2H27.6404L34.3124 12.336L40.8644 1.2H43.4324L43.4564 18H40.5044Z" fill="#3F3D56"/>
<path d="M55.1943 1.2C56.7463 1.2 58.0983 1.456 59.2503 1.968C60.4023 2.48 61.2903 3.216 61.9143 4.176C62.5383 5.136 62.8503 6.256 62.8503 7.536C62.8503 8.816 62.5383 9.936 61.9143 10.896C61.2903 11.856 60.4023 12.592 59.2503 13.104C58.0983 13.616 56.7463 13.872 55.1943 13.872H52.7703V18H47.1063V1.2H55.1943ZM54.8343 9.504C55.6023 9.504 56.1783 9.336 56.5623 9C56.9463 8.648 57.1383 8.16 57.1383 7.536C57.1383 6.912 56.9463 6.432 56.5623 6.096C56.1783 5.744 55.6023 5.568 54.8343 5.568H52.7703V9.504H54.8343ZM71.2062 18.384C69.8142 18.384 68.4542 18.232 67.1262 17.928C65.8142 17.608 64.7342 17.184 63.8862 16.656L65.7102 12.528C66.5102 12.992 67.4062 13.368 68.3982 13.656C69.3902 13.928 70.3422 14.064 71.2542 14.064C72.0382 14.064 72.5982 13.992 72.9342 13.848C73.2702 13.688 73.4382 13.456 73.4382 13.152C73.4382 12.8 73.2142 12.536 72.7662 12.36C72.3342 12.184 71.6142 11.992 70.6062 11.784C69.3102 11.512 68.2302 11.224 67.3662 10.92C66.5022 10.6 65.7502 10.088 65.1102 9.384C64.4702 8.664 64.1502 7.696 64.1502 6.48C64.1502 5.424 64.4462 4.464 65.0382 3.6C65.6302 2.736 66.5102 2.056 67.6782 1.56C68.8622 1.064 70.2942 0.816 71.9742 0.816C73.1262 0.816 74.2542 0.943999 75.3582 1.2C76.4782 1.44 77.4622 1.8 78.3102 2.28L76.6062 6.384C74.9582 5.552 73.3982 5.136 71.9262 5.136C70.4702 5.136 69.7422 5.488 69.7422 6.192C69.7422 6.528 69.9582 6.784 70.3902 6.96C70.8222 7.12 71.5342 7.296 72.5262 7.488C73.8062 7.728 74.8862 8.008 75.7662 8.328C76.6462 8.632 77.4062 9.136 78.0462 9.84C78.7022 10.544 79.0302 11.504 79.0302 12.72C79.0302 13.776 78.7342 14.736 78.1422 15.6C77.5502 16.448 76.6622 17.128 75.4782 17.64C74.3102 18.136 72.8862 18.384 71.2062 18.384ZM89.4037 18.384C87.6277 18.384 86.0277 18.016 84.6037 17.28C83.1797 16.528 82.0597 15.488 81.2437 14.16C80.4437 12.816 80.0437 11.296 80.0437 9.6C80.0437 7.904 80.4437 6.392 81.2437 5.064C82.0597 3.72 83.1797 2.68 84.6037 1.944C86.0277 1.192 87.6277 0.816 89.4037 0.816C91.0357 0.816 92.4917 1.104 93.7717 1.68C95.0517 2.256 96.1077 3.088 96.9397 4.176L93.3637 7.368C92.3237 6.056 91.0997 5.4 89.6917 5.4C88.5077 5.4 87.5557 5.784 86.8357 6.552C86.1157 7.304 85.7557 8.32 85.7557 9.6C85.7557 10.88 86.1157 11.904 86.8357 12.672C87.5557 13.424 88.5077 13.8 89.6917 13.8C91.0997 13.8 92.3237 13.144 93.3637 11.832L96.9397 15.024C96.1077 16.112 95.0517 16.944 93.7717 17.52C92.4917 18.096 91.0357 18.384 89.4037 18.384ZM113.575 18L113.527 10.344L109.879 16.488H107.383L103.735 10.608V18H98.575V1.2H103.231L108.703 10.152L114.031 1.2H118.687L118.735 18H113.575ZM129.561 1.2C131.113 1.2 132.465 1.456 133.617 1.968C134.769 2.48 135.657 3.216 136.281 4.176C136.905 5.136 137.217 6.256 137.217 7.536C137.217 8.816 136.905 9.936 136.281 10.896C135.657 11.856 134.769 12.592 133.617 13.104C132.465 13.616 131.113 13.872 129.561 13.872H127.137V18H121.473V1.2H129.561ZM129.201 9.504C129.969 9.504 130.545 9.336 130.929 9C131.313 8.648 131.505 8.16 131.505 7.536C131.505 6.912 131.313 6.432 130.929 6.096C130.545 5.744 129.969 5.568 129.201 5.568H127.137V9.504H129.201Z" fill="#6C63FF"/>
</svg>
