<svg width="1991" height="2116" viewBox="0 0 1991 2116" fill="none" xmlns="http://www.w3.org/2000/svg">
<g clip-path="url(#clip0)">
<path d="M1886.81 1970.87C1886.81 2050.49 1464.44 2115.04 943.405 2115.04C422.372 2115.04 0 2050.49 0 1970.87C0 1914.51 211.718 1865.67 520.273 1841.99C647.511 1832.19 791.273 1826.7 943.405 1826.7C1005.94 1826.7 1067.05 1827.63 1126.15 1829.4C1559.72 1842.42 1886.81 1900.8 1886.81 1970.87Z" fill="#3F3D56"/>
<path opacity="0.1" d="M821.674 2000.32C1021.68 2000.32 1183.82 1980.2 1183.82 1955.37C1183.82 1930.54 1021.68 1910.41 821.674 1910.41C621.667 1910.41 459.528 1930.54 459.528 1955.37C459.528 1980.2 621.667 2000.32 821.674 2000.32Z" fill="black"/>
<path d="M820.153 1987.92C1009.24 1987.92 1162.52 1821.35 1162.52 1615.88C1162.52 1410.41 1009.24 1243.84 820.153 1243.84C631.07 1243.84 477.788 1410.41 477.788 1615.88C477.788 1821.35 631.07 1987.92 820.153 1987.92Z" fill="#3F3D56"/>
<path d="M928.19 1836H715.163V2034.43H928.19V1836Z" fill="#B2DF8A"/>
<path d="M1206.65 1884.06L1194.47 1952.27L1273.6 1964.67L1325.33 1933.67L1322.29 1884.06H1206.65Z" fill="#575A89"/>
<path d="M807.982 603.614C807.982 603.614 801.895 674.923 786.679 678.023C771.463 681.123 820.154 805.138 820.154 805.138H893.192L951.014 789.636L923.625 721.428C923.625 721.428 887.106 671.822 914.495 631.518C941.884 591.213 807.982 603.614 807.982 603.614Z" fill="#A0616A"/>
<path opacity="0.1" d="M807.982 603.614C807.982 603.614 801.895 674.923 786.679 678.023C771.463 681.123 820.154 805.138 820.154 805.138H893.192L951.014 789.636L923.625 721.428C923.625 721.428 887.106 671.822 914.495 631.518C941.884 591.213 807.982 603.614 807.982 603.614Z" fill="black"/>
<path d="M655.818 1149.28C655.818 1149.28 576.694 1304.29 640.602 1335.3C704.51 1366.3 719.726 1363.2 719.726 1372.5C719.726 1381.8 707.553 1378.7 713.64 1394.2C719.726 1409.71 701.467 1471.71 719.726 1508.92C737.986 1546.12 731.899 1574.02 731.899 1574.02C731.899 1574.02 731.899 1577.12 737.986 1589.53C744.072 1601.93 747.115 1611.23 744.072 1617.43C741.029 1623.63 722.769 1663.93 741.029 1673.24C759.288 1682.54 853.629 1688.74 862.758 1673.24C871.888 1657.73 853.629 1648.43 862.758 1639.13C871.888 1629.83 877.975 1626.73 871.888 1620.53C865.802 1614.33 859.715 1536.82 859.715 1536.82C859.715 1536.82 874.931 1446.91 868.845 1434.51C862.758 1422.11 853.629 1409.71 859.715 1400.4C865.802 1391.1 871.888 1394.2 874.931 1381.8C877.975 1369.4 884.061 1341.5 884.061 1341.5L917.537 1338.4L996.661 1353.9C996.661 1353.9 1084.92 1453.11 1182.3 1484.11C1182.3 1484.11 1209.69 1512.02 1218.82 1512.02C1227.95 1512.02 1227.95 1512.02 1224.9 1518.22C1221.86 1524.42 1212.73 1524.42 1218.82 1530.62C1224.9 1536.82 1234.03 1527.52 1227.95 1536.82C1221.86 1546.12 1215.77 1546.12 1221.86 1552.32C1227.95 1558.52 1218.82 1592.63 1218.82 1595.73C1218.82 1598.83 1191.43 1890.26 1200.56 1896.46C1209.69 1902.66 1337.5 1921.26 1346.63 1896.46C1355.76 1871.66 1340.55 1840.65 1340.55 1840.65C1340.55 1840.65 1386.2 1468.61 1374.02 1443.81C1361.85 1419.01 1319.24 1307.39 1091 1236.09C1091 1236.09 1027.09 1223.68 1027.09 1214.38C1027.09 1205.08 1021.01 1146.18 1008.83 1143.08C996.661 1139.98 926.667 1136.87 926.667 1136.87L838.413 1164.78L716.683 1143.08L655.818 1149.28Z" fill="#2F2E41"/>
<path d="M762.333 1670.14L747.117 1725.94C747.117 1725.94 734.944 1815.85 750.16 1837.55C762.112 1854.6 783.452 1875.47 823.029 1879.14C834.121 1880.17 845.227 1877.32 854.512 1871.05C863.797 1864.79 870.704 1855.48 874.09 1844.67C874.544 1843.37 874.828 1842.02 874.933 1840.66C874.933 1834.45 865.804 1760.05 865.804 1760.05L850.587 1682.54L847.544 1660.83L762.333 1670.14Z" fill="#2F2E41"/>
<path d="M1206.65 1936.77C1206.65 1936.77 1191.43 1921.26 1188.39 1936.77C1185.34 1952.27 1173.17 2017.38 1194.47 2020.48C1215.78 2023.58 1419.67 2054.58 1440.98 2042.18C1462.28 2029.78 1501.84 2011.17 1477.49 2001.87C1453.15 1992.57 1383.15 1964.67 1383.15 1964.67C1383.15 1964.67 1343.59 1911.96 1337.51 1908.86C1331.42 1905.76 1297.94 1911.96 1282.73 1924.36C1267.51 1936.77 1206.65 1936.77 1206.65 1936.77Z" fill="#2F2E41"/>
<path d="M881.018 668.722C933.121 668.722 975.359 625.691 975.359 572.611C975.359 519.53 933.121 476.5 881.018 476.5C828.915 476.5 786.678 519.53 786.678 572.611C786.678 625.691 828.915 668.722 881.018 668.722Z" fill="#A0616A"/>
<path d="M871.889 789.635L835.37 749.331L794.89 668.722C794.89 668.722 765.375 659.421 759.289 674.922C753.202 690.424 643.645 740.03 643.645 740.03C643.645 740.03 671.035 1000.46 658.862 1025.26C646.689 1050.07 625.386 1149.28 643.645 1158.58C661.905 1167.88 747.116 1158.58 774.505 1170.98C801.894 1183.38 881.018 1183.38 902.321 1167.88C923.624 1152.38 929.71 1139.98 951.013 1149.28C969.148 1157.19 1011.55 886.487 1023.75 805.816C1024.78 799.041 1023.93 792.107 1021.29 785.801C1018.65 779.494 1014.33 774.066 1008.81 770.132C981.509 750.619 932.33 716.993 923.624 721.428C911.451 727.628 871.889 789.635 871.889 789.635Z" fill="#575A89"/>
<path d="M1002.75 777.234C1009.9 779.054 1016.32 783.058 1021.17 788.709C1026.02 794.36 1029.05 801.386 1029.87 808.844L1054.48 1034.56C1054.48 1034.56 993.619 1167.88 963.187 1077.97C932.754 988.058 1002.75 777.234 1002.75 777.234Z" fill="#575A89"/>
<path d="M996.661 1056.27L1063.61 1037.66C1063.61 1037.66 1075.79 1124.47 1087.96 1124.47C1100.13 1124.47 1045.35 1174.08 1017.96 1167.88C990.575 1161.68 951.013 1139.98 947.969 1124.47C944.926 1108.97 975.358 1043.86 975.358 1043.86L996.661 1056.27Z" fill="#575A89"/>
<path d="M809.801 614.071C816.216 599.661 815.102 582.852 820.406 567.98C823.246 560.016 827.854 552.83 833.872 546.981C839.889 541.133 847.152 536.781 855.093 534.265C863.035 531.749 871.44 531.138 879.651 532.479C887.863 533.821 895.659 537.078 902.431 541.997C909.253 546.952 916.093 553.915 924.42 552.969C933.388 551.95 941.386 541.758 949.631 545.493C958.769 549.633 956.301 566.318 965.559 570.171C970.432 572.2 976.191 569.076 979.001 564.542C981.459 559.777 982.799 554.496 982.914 549.114C984.192 535.891 985.346 521.896 979.717 509.91C977.35 505.848 975.286 501.609 973.545 497.23C972.56 493.141 972.165 488.927 972.371 484.722C972.32 469.18 971.206 452.968 963.528 439.537C955.009 424.633 939.26 415.103 922.83 410.945C906.4 406.786 889.187 407.424 872.318 408.879C844.433 411.284 815.351 416.439 793.381 434.1C790.395 436.322 787.825 439.073 785.793 442.222C783.865 445.961 782.502 449.977 781.751 454.131C777.001 473.838 769.879 492.87 760.547 510.797C756.058 518.397 752.39 526.469 749.605 534.873C747.276 543.412 747.433 553.144 752.31 560.484C756.281 566.46 762.629 569.645 767.616 574.53C772.558 579.371 774.87 588.681 780.344 592.347C785.123 595.547 790.847 593.288 795.721 596.68C801.979 601.034 802.431 610.582 809.801 614.071Z" fill="#2F2E41"/>
<path d="M887.106 836.14L896.235 817.538C896.235 817.538 1030.14 857.843 1057.53 895.047C1057.53 895.047 1124.48 851.642 1161 857.843L1197.52 864.044L1084.92 966.355L941.884 953.954L887.106 836.14Z" fill="#F2F2F2"/>
<path d="M881.019 817.538L756.246 994.258L935.797 1084.17C935.797 1084.17 952.583 1093.47 965.493 1084.17L1084.92 1028.36L1197.52 864.044L1084.92 922.95C1084.92 922.95 1072.74 898.147 1048.4 910.549L881.019 817.538Z" fill="#B2DF8A"/>
<path d="M1072.74 1130.67L1097.09 1065.57C1097.09 1065.57 1151.87 994.258 1121.44 960.155C1091 926.051 1057.53 1059.37 1057.53 1059.37L1072.74 1130.67Z" fill="#A0616A"/>
<path d="M791.844 1120.28L844.967 1076.41C844.967 1076.41 927.47 1042.72 917.94 997.667C908.41 952.611 813.798 1050.82 813.798 1050.82L791.844 1120.28Z" fill="#A0616A"/>
<path opacity="0.1" d="M660.384 806.687H657.34C657.34 806.687 610.17 749.331 601.04 826.84C591.911 904.349 561.478 1161.68 640.603 1170.98C719.727 1180.28 776.027 1132.22 776.027 1132.22C776.027 1132.22 833.849 1042.31 812.546 1042.31C802.239 1042.31 774.206 1037.6 748.638 1039.21C721.362 1040.94 696.853 1048.77 698.424 1040.76C701.467 1025.26 745.594 828.39 660.384 806.687Z" fill="black"/>
<path d="M655.818 746.23L643.645 740.03C643.645 740.03 594.953 749.331 585.823 826.84C576.694 904.348 546.261 1161.68 625.385 1170.98C704.51 1180.28 811.023 1158.58 811.023 1158.58C811.023 1158.58 832.326 1040.76 811.023 1040.76C789.721 1040.76 680.164 1056.27 683.207 1040.76C686.25 1025.26 741.029 767.933 655.818 746.23Z" fill="#575A89"/>
<path d="M1028.62 1095.02L1062.17 1042.62L1083.4 1129.13L1028.62 1153.93V1095.02Z" fill="#575A89"/>
<path d="M339.24 347.835C384.62 347.835 421.408 310.357 421.408 264.126C421.408 217.894 384.62 180.416 339.24 180.416C293.86 180.416 257.073 217.894 257.073 264.126C257.073 310.357 293.86 347.835 339.24 347.835Z" fill="#F2F2F2"/>
<path d="M436.623 887.296H241.856V1085.72H436.623V887.296Z" fill="#F2F2F2"/>
<path d="M1132.08 0.24353L1181.38 87.2301L1230.68 174.217H1132.08H1033.49L1082.79 87.2301L1132.08 0.24353Z" fill="#F2F2F2"/>
<path d="M1991 521.813C1989.82 558.925 1980.95 588.671 1964.39 611.052C1947.82 633.435 1928.14 644.627 1905.34 644.629C1886.78 644.629 1870.5 633.676 1856.52 611.77C1842.54 589.864 1835.55 556.167 1835.55 510.68C1835.55 500.625 1835.78 491.049 1836.25 481.951C1836.72 472.855 1837.31 464.237 1838.02 456.095L1850.35 337.947H1768.93C1754.83 487.338 1743.25 576.218 1734.21 604.588C1725.16 632.957 1709.82 647.143 1688.2 647.143C1678.45 646.899 1669.14 642.925 1662.12 636.011C1658.05 632.339 1654.84 627.792 1652.7 622.7C1650.57 617.607 1649.57 612.096 1649.78 606.563C1649.78 595.555 1658.3 580.173 1675.34 560.417C1692.37 540.666 1701.83 522.65 1703.71 506.371L1724.86 337.947H1690.67C1681.03 338.005 1671.55 340.406 1663 344.949C1655.14 348.629 1648.29 354.244 1643.08 361.289L1627.93 384.272H1615.59C1627.1 347.884 1641.26 320.531 1658.07 302.215C1674.86 283.9 1694.19 274.742 1716.05 274.742H1985.36V337.947H1894.42C1891.6 366.676 1889.42 395.405 1887.89 424.133C1886.36 452.862 1885.6 481.711 1885.6 510.68C1885.6 530.313 1890.07 546.234 1899 558.442C1907.93 570.652 1919.09 576.757 1932.49 576.757C1940.71 576.757 1949.35 573.345 1958.4 566.521C1962.69 563.451 1966.29 559.47 1968.93 554.853C1971.58 550.235 1973.22 545.09 1973.73 539.768C1974.43 534.505 1974.96 530.375 1975.31 527.379C1975.67 524.388 1975.84 522.532 1975.84 521.812L1991 521.813Z" fill="#B2DF8A"/>
<path opacity="0.1" d="M1991 521.813C1989.82 558.925 1980.95 588.671 1964.39 611.052C1947.82 633.435 1928.14 644.627 1905.34 644.629C1886.78 644.629 1870.5 633.676 1856.52 611.77C1842.54 589.864 1835.55 556.167 1835.55 510.68C1835.55 500.625 1835.78 491.049 1836.25 481.951C1836.72 472.855 1837.31 464.237 1838.02 456.095L1850.35 337.947H1768.93C1754.83 487.338 1743.25 576.218 1734.21 604.588C1725.16 632.957 1709.82 647.143 1688.2 647.143C1678.45 646.899 1669.14 642.925 1662.12 636.011C1658.05 632.339 1654.84 627.792 1652.7 622.7C1650.57 617.607 1649.57 612.096 1649.78 606.563C1649.78 595.555 1658.3 580.173 1675.34 560.417C1692.37 540.666 1701.83 522.65 1703.71 506.371L1724.86 337.947H1690.67C1681.03 338.005 1671.55 340.406 1663 344.949C1655.14 348.629 1648.29 354.244 1643.08 361.289L1627.93 384.272H1615.59C1627.1 347.884 1641.26 320.531 1658.07 302.215C1674.86 283.9 1694.19 274.742 1716.05 274.742H1985.36V337.947H1894.42C1891.6 366.676 1889.42 395.405 1887.89 424.133C1886.36 452.862 1885.6 481.711 1885.6 510.68C1885.6 530.313 1890.07 546.234 1899 558.442C1907.93 570.652 1919.09 576.757 1932.49 576.757C1940.71 576.757 1949.35 573.345 1958.4 566.521C1962.69 563.451 1966.29 559.47 1968.93 554.853C1971.58 550.235 1973.22 545.09 1973.73 539.768C1974.43 534.505 1974.96 530.375 1975.31 527.379C1975.67 524.388 1975.84 522.532 1975.84 521.812L1991 521.813Z" fill="black"/>
<path d="M1991 510.593C1989.82 547.705 1980.95 577.451 1964.39 599.832C1947.82 622.215 1928.14 633.407 1905.34 633.41C1886.78 633.41 1870.5 622.456 1856.52 600.55C1842.54 578.644 1835.55 544.948 1835.55 499.46C1835.55 489.405 1835.78 479.829 1836.25 470.731C1836.72 461.635 1837.31 453.017 1838.02 444.875L1850.35 326.727H1768.93C1754.83 476.118 1743.25 564.998 1734.21 593.368C1725.16 621.738 1709.82 635.923 1688.2 635.924C1678.45 635.679 1669.14 631.705 1662.12 624.791C1658.05 621.119 1654.84 616.572 1652.7 611.48C1650.57 606.387 1649.57 600.876 1649.78 595.343C1649.78 584.335 1658.3 568.953 1675.34 549.197C1692.37 529.446 1701.83 511.43 1703.71 495.151L1724.86 326.727H1690.67C1681.03 326.785 1671.55 329.186 1663 333.729C1655.14 337.409 1648.29 343.024 1643.08 350.069L1627.93 373.052H1615.59C1627.1 336.664 1641.26 309.311 1658.07 290.995C1674.86 272.68 1694.19 263.522 1716.05 263.523H1985.36V326.727H1894.42C1891.6 355.456 1889.42 384.185 1887.89 412.914C1886.36 441.643 1885.6 470.492 1885.6 499.46C1885.6 519.094 1890.07 535.014 1899 547.223C1907.93 559.433 1919.09 565.537 1932.49 565.537C1940.71 565.537 1949.35 562.125 1958.4 555.302C1962.69 552.231 1966.29 548.251 1968.93 543.633C1971.58 539.016 1973.22 533.87 1973.73 528.548C1974.43 523.285 1974.96 519.155 1975.31 516.159C1975.67 513.168 1975.84 511.313 1975.84 510.593H1991Z" fill="#B2DF8A"/>
</g>
<defs>
<clipPath id="clip0">
<rect width="1991" height="2114.79" fill="white" transform="translate(0 0.24353)"/>
</clipPath>
</defs>
</svg>
