<svg width="261" height="261" viewBox="0 0 261 261" fill="none" xmlns="http://www.w3.org/2000/svg">
<g clip-path="url(#clip0)">
<path d="M90.6639 61.5342C52.6194 83.4992 39.5693 132.203 61.5343 170.247C83.4993 208.292 132.203 221.342 170.247 199.377C208.292 177.412 221.342 128.708 199.377 90.6638C177.412 52.6193 128.708 39.5692 90.6639 61.5342ZM181.131 92.0085L133.368 119.584L105.793 71.8218C132.464 60.5584 163.665 68.9186 181.131 92.0085ZM75.3186 162.289C59.1234 134.238 66.8035 98.8351 92.0086 79.7801L155.118 189.089C126.013 201.39 91.5138 190.34 75.3186 162.289ZM168.902 181.131L141.327 133.368L189.089 105.793C200.353 132.464 191.992 163.665 168.902 181.131Z" fill="white"/>
</g>
<defs>
<clipPath id="clip0">
<rect width="191" height="191" fill="white" transform="translate(0 95.5) rotate(-30)"/>
</clipPath>
</defs>
</svg>
