<svg width="1991" height="1834" viewBox="0 0 1991 1834" fill="none" xmlns="http://www.w3.org/2000/svg">
<g clip-path="url(#clip0)">
<path d="M1412.01 685.17C1455.47 685.17 1490.71 641.643 1490.71 587.95C1490.71 534.257 1455.47 490.73 1412.01 490.73C1368.54 490.73 1333.3 534.257 1333.3 587.95C1333.3 641.643 1368.54 685.17 1412.01 685.17Z" fill="#2F2E41"/>
<path d="M1431.87 487.541C1445.51 487.543 1458.91 492.154 1470.77 500.923C1482.63 509.692 1492.54 522.319 1499.53 537.57C1506.52 552.82 1510.36 570.172 1510.66 587.928C1510.96 605.685 1507.71 623.239 1501.24 638.875C1508.07 627.743 1513.05 614.879 1515.86 601.103C1518.66 587.328 1519.23 572.943 1517.53 558.865C1515.83 544.787 1511.89 531.325 1505.97 519.337C1500.06 507.348 1492.29 497.097 1483.16 489.235C1474.03 481.374 1463.75 476.075 1452.96 473.676C1442.17 471.277 1431.12 471.831 1420.5 475.302C1409.89 478.774 1399.95 485.086 1391.31 493.838C1382.67 502.59 1375.53 513.588 1370.34 526.133C1377.71 514.089 1387.06 504.364 1397.72 497.682C1408.37 491 1420.04 487.534 1431.87 487.541V487.541Z" fill="#2F2E41"/>
<path d="M1259.23 592.58C1392.19 592.58 1499.97 459.926 1499.97 296.29C1499.97 132.653 1392.19 0 1259.23 0C1126.28 0 1018.5 132.653 1018.5 296.29C1018.5 459.926 1126.28 592.58 1259.23 592.58Z" fill="#2F2E41"/>
<path d="M1071.43 111.518C1112.05 54.7216 1168.83 19.7681 1229.78 14.0344C1290.73 8.30068 1351.09 32.2353 1398.12 80.7868C1396.19 78.5085 1394.28 76.2118 1392.28 73.9979C1345.55 22.3734 1284.25 -4.06142 1221.85 0.507286C1159.45 5.07599 1101.06 40.2741 1059.53 98.3605C1018 156.447 996.723 232.665 1000.38 310.252C1004.04 387.84 1032.34 460.443 1079.05 512.094C1081.05 514.308 1083.11 516.394 1085.15 518.507C1040.86 466.124 1014.68 394.396 1012.12 318.461C1009.56 242.526 1030.82 168.325 1071.43 111.518V111.518Z" fill="#2F2E41"/>
<path d="M1254.6 583.32C1338.98 583.32 1407.38 498.339 1407.38 393.51C1407.38 288.68 1338.98 203.699 1254.6 203.699C1170.23 203.699 1101.83 288.68 1101.83 393.51C1101.83 498.339 1170.23 583.32 1254.6 583.32Z" fill="#FFB8B8"/>
<path d="M1145.2 453.694C1145.2 453.694 1165.66 683.554 1132.91 708.538C1100.17 733.523 1321.22 768.502 1321.22 768.502C1321.22 768.502 1288.47 518.654 1370.34 453.694H1145.2Z" fill="#FFB8B8"/>
<path d="M1338.75 672.466C1338.75 672.466 1398.63 637.993 1312.4 650.272C1226.16 662.55 1151.76 615.453 1151.76 615.453C1151.76 615.453 1125.64 583.229 1121.62 617.932C1117.59 652.635 1133.68 717.084 1045.22 726.999C956.751 736.914 876.33 707.169 844.161 781.533C811.993 855.897 828.077 1178.14 828.077 1178.14C828.077 1178.14 888.393 1445.85 936.646 1485.51C984.899 1525.17 1407.11 1470.64 1407.11 1470.64L1527.74 1202.93V890.6C1527.74 890.6 1511.66 781.533 1399.07 811.279C1399.07 811.279 1326.69 791.448 1330.71 746.83C1334.73 702.211 1338.75 672.466 1338.75 672.466Z" fill="#D0CDE1"/>
<path d="M951.182 1682.31C953.677 1668.95 955.348 1661.39 955.348 1661.39L954.056 1650.53L940.756 1539.54L935.165 1492.72C983.595 1467.92 995.714 1353.8 995.714 1353.8L997.541 1352.46L1005.81 1346.39V1346.36L1035.48 1324.48L1036.08 1324.04L1048.07 1333.85L1072.42 1353.8C1157.6 1430.79 1244.35 1429.42 1297.88 1417.29C1330.61 1409.87 1350.95 1398.46 1350.95 1398.46L1409.67 1374.39L1411.5 1373.65L1413.3 1373.98L1447.74 1380.39L1448.37 1380.53L1451.22 1381.05L1443.24 1448.81L1431.68 1547.28C1462.22 1567.16 1489.38 1604.5 1513.13 1650.53C1518.38 1660.71 1523.48 1671.31 1528.41 1682.31C1534.83 1696.55 1540.95 1711.36 1546.79 1726.53C1547.5 1728.33 1548.19 1730.17 1548.88 1732C1551.13 1737.94 1553.36 1743.94 1555.52 1749.96H940.489C941.291 1743.91 942.093 1738.13 942.872 1732.58C942.913 1732.39 942.943 1732.2 942.961 1732C943.251 1730.14 943.518 1728.33 943.763 1726.53C946.481 1708.46 949.11 1693.37 951.182 1682.31Z" fill="#2F2E41"/>
<path d="M935.165 717.073C935.165 717.073 977.876 817.456 962.344 942.934C946.813 1068.41 1008.94 1379.6 1008.94 1379.6L1055.53 1364.54C1055.53 1364.54 1024.47 1103.55 1032.24 1043.32C1040 983.087 1040 747.188 1001.17 717.073C962.344 686.958 935.165 717.073 935.165 717.073Z" fill="#2F2E41"/>
<path d="M1398.15 824.929L1416.16 1373.35L1450.45 1398.12C1450.45 1398.12 1499.73 796.279 1474.02 796.279H1421.7C1418.5 796.279 1415.33 797.031 1412.4 798.489C1409.46 799.947 1406.81 802.081 1404.6 804.762C1402.4 807.442 1400.69 810.611 1399.58 814.079C1398.47 817.546 1397.98 821.237 1398.15 824.929V824.929Z" fill="#2F2E41"/>
<path d="M1027.76 1370.34C1037.98 1370.34 1046.27 1357.9 1046.27 1342.56C1046.27 1327.22 1037.98 1314.79 1027.76 1314.79C1017.53 1314.79 1009.24 1327.22 1009.24 1342.56C1009.24 1357.9 1017.53 1370.34 1027.76 1370.34Z" fill="#A6CEE3"/>
<path d="M1435.15 1388.86C1445.38 1388.86 1453.67 1378.49 1453.67 1365.71C1453.67 1352.93 1445.38 1342.56 1435.15 1342.56C1424.93 1342.56 1416.64 1352.93 1416.64 1365.71C1416.64 1378.49 1424.93 1388.86 1435.15 1388.86Z" fill="#A6CEE3"/>
<path d="M1129.6 157.404V351.844H1164.17L1208.17 290.442L1202.28 351.844H1355.08L1345.65 290.442L1364.5 351.844H1388.86V157.404H1129.6Z" fill="#2F2E41"/>
<path d="M1101.83 388.881C1106.94 388.881 1111.09 376.444 1111.09 361.103C1111.09 345.762 1106.94 333.326 1101.83 333.326C1096.71 333.326 1092.57 345.762 1092.57 361.103C1092.57 376.444 1096.71 388.881 1101.83 388.881Z" fill="#FFB8B8"/>
<path d="M1412.01 388.881C1419.68 388.881 1425.89 376.444 1425.89 361.103C1425.89 345.762 1419.68 333.326 1412.01 333.326C1404.34 333.326 1398.12 345.762 1398.12 361.103C1398.12 376.444 1404.34 388.881 1412.01 388.881Z" fill="#FFB8B8"/>
<path d="M1491.92 1363.64C1491.92 1363.64 1308.83 1321.77 1296.76 1395.65C1284.69 1469.52 1499.97 1437.51 1499.97 1437.51L1491.92 1363.64Z" fill="#FFB8B8"/>
<path d="M1491.24 851.833C1491.24 851.833 1932.04 1287.81 1851.16 1393.05C1770.28 1498.28 1462.93 1468.21 1462.93 1468.21L1483.15 1342.93L1661.09 1317.88L1572.12 1207.63L1491.24 1217.65V851.833Z" fill="#D0CDE1"/>
<path d="M842.574 1571.92L899.446 1628.46C899.446 1628.46 940.068 1787.8 1001 1741.54C1061.94 1695.28 944.13 1530.81 944.13 1530.81L875.072 1499.97L842.574 1571.92Z" fill="#FFB8B8"/>
<path d="M898.128 768.501L842.148 789.574C842.148 789.574 453.086 1149.67 437.049 1249.97C421.011 1350.28 513.227 1405.45 513.227 1405.45L862.044 1611.08L898.128 1490.71L733.743 1385.39C733.743 1385.39 745.772 1355.29 697.659 1350.28C649.546 1345.26 641.527 1280.06 641.527 1280.06C641.527 1280.06 737.753 1094.5 789.875 1134.62C841.997 1174.74 858.034 1204.83 858.034 1204.83L898.128 768.501Z" fill="#D0CDE1"/>
<path d="M1703.67 1695.28V1712.3C1703.67 1716.97 1702.99 1721.6 1701.64 1725.96C1701.04 1727.9 1700.32 1729.77 1699.47 1731.57C1696.82 1737.18 1693.05 1741.82 1688.53 1745.05C1684.02 1748.27 1678.91 1749.96 1673.72 1749.96H678.078C672.886 1749.96 667.783 1748.27 663.268 1745.05C658.754 1741.82 654.983 1737.18 652.326 1731.57C651.485 1729.77 650.762 1727.9 650.163 1725.96C648.815 1721.6 648.126 1716.97 648.134 1712.3V1695.28C648.133 1690.33 648.907 1685.44 650.411 1680.87C651.916 1676.3 654.121 1672.14 656.902 1668.65C659.683 1665.15 662.984 1662.37 666.618 1660.48C670.251 1658.59 674.145 1657.62 678.078 1657.62H735.469V1649.68C735.468 1649.48 735.501 1649.27 735.563 1649.08C735.626 1648.89 735.718 1648.72 735.834 1648.57C735.95 1648.43 736.088 1648.31 736.239 1648.23C736.391 1648.15 736.553 1648.11 736.717 1648.11H766.661C766.825 1648.11 766.988 1648.15 767.139 1648.23C767.291 1648.31 767.429 1648.43 767.545 1648.57C767.661 1648.72 767.753 1648.89 767.815 1649.08C767.878 1649.27 767.91 1649.48 767.91 1649.68V1657.62H786.617V1649.68C786.616 1649.48 786.648 1649.27 786.711 1649.08C786.774 1648.89 786.866 1648.72 786.982 1648.57C787.098 1648.43 787.235 1648.31 787.387 1648.23C787.539 1648.15 787.701 1648.11 787.865 1648.11H817.809C817.973 1648.11 818.136 1648.15 818.287 1648.23C818.439 1648.31 818.577 1648.43 818.693 1648.57C818.809 1648.72 818.901 1648.89 818.963 1649.08C819.026 1649.27 819.058 1649.48 819.058 1649.68V1657.62H837.787V1649.68C837.786 1649.48 837.819 1649.27 837.881 1649.08C837.944 1648.89 838.036 1648.72 838.152 1648.57C838.268 1648.43 838.406 1648.31 838.557 1648.23C838.709 1648.15 838.871 1648.11 839.035 1648.11H868.979C869.143 1648.11 869.306 1648.15 869.458 1648.23C869.609 1648.31 869.747 1648.43 869.863 1648.57C869.979 1648.72 870.071 1648.89 870.134 1649.08C870.196 1649.27 870.228 1649.48 870.228 1649.68V1657.62H888.935V1649.68C888.934 1649.48 888.967 1649.27 889.029 1649.08C889.092 1648.89 889.184 1648.72 889.3 1648.57C889.416 1648.43 889.553 1648.31 889.705 1648.23C889.857 1648.15 890.019 1648.11 890.183 1648.11H920.127C920.291 1648.11 920.454 1648.15 920.605 1648.23C920.757 1648.31 920.895 1648.43 921.011 1648.57C921.127 1648.72 921.219 1648.89 921.281 1649.08C921.344 1649.27 921.376 1649.48 921.376 1649.68V1657.62H940.083V1649.68C940.082 1649.48 940.114 1649.27 940.177 1649.08C940.24 1648.89 940.332 1648.72 940.448 1648.57C940.564 1648.43 940.701 1648.31 940.853 1648.23C941.005 1648.15 941.167 1648.11 941.331 1648.11H971.275C971.439 1648.11 971.602 1648.15 971.753 1648.23C971.905 1648.31 972.043 1648.43 972.159 1648.57C972.275 1648.72 972.367 1648.89 972.429 1649.08C972.492 1649.27 972.524 1649.48 972.524 1649.68V1657.62H991.253V1649.68C991.252 1649.48 991.285 1649.27 991.347 1649.08C991.41 1648.89 991.502 1648.72 991.618 1648.57C991.734 1648.43 991.872 1648.31 992.023 1648.23C992.175 1648.15 992.337 1648.11 992.501 1648.11H1022.45C1022.61 1648.11 1022.77 1648.15 1022.92 1648.23C1023.08 1648.31 1023.21 1648.43 1023.33 1648.57C1023.44 1648.72 1023.54 1648.89 1023.6 1649.08C1023.66 1649.27 1023.69 1649.48 1023.69 1649.68V1657.62H1042.4V1649.68C1042.4 1649.48 1042.43 1649.27 1042.5 1649.08C1042.56 1648.89 1042.65 1648.72 1042.77 1648.57C1042.88 1648.43 1043.02 1648.31 1043.17 1648.23C1043.32 1648.15 1043.49 1648.11 1043.65 1648.11H1278.21C1278.37 1648.11 1278.53 1648.15 1278.69 1648.23C1278.84 1648.31 1278.97 1648.43 1279.09 1648.57C1279.21 1648.72 1279.3 1648.89 1279.36 1649.08C1279.42 1649.27 1279.46 1649.48 1279.46 1649.68V1657.62H1298.18V1649.68C1298.18 1649.48 1298.22 1649.27 1298.28 1649.08C1298.34 1648.89 1298.43 1648.72 1298.55 1648.57C1298.67 1648.43 1298.8 1648.31 1298.95 1648.23C1299.11 1648.15 1299.27 1648.11 1299.43 1648.11H1329.38C1329.71 1648.12 1330.02 1648.28 1330.26 1648.58C1330.49 1648.87 1330.62 1649.27 1330.63 1649.68V1657.62H1349.33V1649.68C1349.33 1649.48 1349.36 1649.27 1349.43 1649.08C1349.49 1648.89 1349.58 1648.72 1349.7 1648.57C1349.81 1648.43 1349.95 1648.31 1350.1 1648.23C1350.25 1648.15 1350.42 1648.11 1350.58 1648.11H1380.52C1380.69 1648.11 1380.85 1648.15 1381 1648.23C1381.15 1648.31 1381.29 1648.43 1381.41 1648.57C1381.52 1648.72 1381.62 1648.89 1381.68 1649.08C1381.74 1649.27 1381.77 1649.48 1381.77 1649.68V1657.62H1400.48V1649.68C1400.48 1649.48 1400.51 1649.27 1400.57 1649.08C1400.64 1648.89 1400.73 1648.72 1400.85 1648.57C1400.96 1648.43 1401.1 1648.31 1401.25 1648.23C1401.4 1648.15 1401.56 1648.11 1401.73 1648.11H1431.67C1431.84 1648.11 1432 1648.15 1432.15 1648.23C1432.3 1648.31 1432.44 1648.43 1432.56 1648.57C1432.67 1648.72 1432.76 1648.89 1432.83 1649.08C1432.89 1649.27 1432.92 1649.48 1432.92 1649.68V1657.62H1451.65V1649.68C1451.65 1649.48 1451.68 1649.27 1451.74 1649.08C1451.81 1648.89 1451.9 1648.72 1452.02 1648.57C1452.13 1648.43 1452.27 1648.31 1452.42 1648.23C1452.57 1648.15 1452.73 1648.11 1452.9 1648.11H1482.84C1483.17 1648.12 1483.48 1648.29 1483.71 1648.58C1483.94 1648.87 1484.07 1649.27 1484.07 1649.68V1657.62H1502.8V1649.68C1502.8 1649.48 1502.83 1649.27 1502.89 1649.08C1502.96 1648.89 1503.05 1648.72 1503.16 1648.57C1503.28 1648.43 1503.42 1648.31 1503.57 1648.23C1503.72 1648.15 1503.88 1648.11 1504.05 1648.11H1533.99C1534.15 1648.11 1534.32 1648.15 1534.47 1648.23C1534.62 1648.31 1534.76 1648.43 1534.87 1648.57C1534.99 1648.72 1535.08 1648.89 1535.15 1649.08C1535.21 1649.27 1535.24 1649.48 1535.24 1649.68V1657.62H1553.95V1649.68C1553.95 1649.48 1553.98 1649.27 1554.04 1649.08C1554.1 1648.89 1554.2 1648.72 1554.31 1648.57C1554.43 1648.43 1554.56 1648.31 1554.72 1648.23C1554.87 1648.15 1555.03 1648.11 1555.19 1648.11H1585.14C1585.3 1648.11 1585.47 1648.15 1585.62 1648.23C1585.77 1648.31 1585.91 1648.43 1586.02 1648.57C1586.14 1648.72 1586.23 1648.89 1586.29 1649.08C1586.36 1649.27 1586.39 1649.48 1586.39 1649.68V1657.62H1673.72C1677.65 1657.62 1681.55 1658.59 1685.18 1660.48C1688.82 1662.37 1692.12 1665.15 1694.9 1668.65C1697.68 1672.14 1699.88 1676.3 1701.39 1680.87C1702.89 1685.44 1703.67 1690.33 1703.67 1695.28V1695.28Z" fill="#3F3D56"/>
<path d="M1622.99 990.969H1251.61V981.46H1083.21V990.969H710.291C703.629 990.969 697.239 994.257 692.528 1000.11C687.817 1005.96 685.17 1013.9 685.17 1022.18V1653.94C685.17 1662.22 687.817 1670.15 692.528 1676.01C697.239 1681.86 703.629 1685.15 710.291 1685.15H1622.99C1629.65 1685.15 1636.04 1681.86 1640.75 1676.01C1645.47 1670.15 1648.11 1662.22 1648.11 1653.94V1022.18C1648.11 1018.08 1647.46 1014.02 1646.2 1010.23C1644.94 1006.45 1643.09 1003.01 1640.75 1000.11C1638.42 997.212 1635.65 994.913 1632.6 993.345C1629.56 991.776 1626.29 990.969 1622.99 990.969V990.969Z" fill="#3F3D56"/>
<path d="M1166.64 1277.75C1197.32 1277.75 1222.2 1246.66 1222.2 1208.31C1222.2 1169.95 1197.32 1138.86 1166.64 1138.86C1135.96 1138.86 1111.09 1169.95 1111.09 1208.31C1111.09 1246.66 1135.96 1277.75 1166.64 1277.75Z" stroke="#D0CDE1" stroke-width="2" stroke-miterlimit="10"/>
<path d="M1148.12 1305.53C1178.8 1305.53 1203.68 1274.44 1203.68 1236.08C1203.68 1197.73 1178.8 1166.64 1148.12 1166.64C1117.44 1166.64 1092.57 1197.73 1092.57 1236.08C1092.57 1274.44 1117.44 1305.53 1148.12 1305.53Z" fill="#D0CDE1"/>
<path d="M481.471 1824.03H55.5544V1833.29H481.471V1824.03Z" fill="#3F3D56"/>
<path d="M300.328 1623.23C255.714 1712.72 271.063 1824.03 271.063 1824.03C271.063 1824.03 358.746 1790.26 403.361 1700.77C447.975 1611.28 432.625 1499.97 432.625 1499.97C432.625 1499.97 344.942 1533.74 300.328 1623.23Z" fill="#3F3D56"/>
<path d="M268.455 1824.03L266.024 1823.54C265.145 1823.37 177.627 1804.89 125.213 1724.97C72.7991 1645.05 74.0604 1532.01 74.0776 1530.88L74.1297 1527.74L76.5612 1528.23C77.4404 1528.41 164.958 1546.89 217.372 1626.81C269.786 1706.73 268.525 1819.77 268.508 1820.9L268.455 1824.03Z" fill="#A6CEE3"/>
<path d="M274.929 1833.29L272.54 1832.34C271.676 1832 185.774 1797 142.355 1707.1C98.9352 1617.19 113.383 1504.23 113.533 1503.1L113.951 1499.97L116.34 1500.92C117.204 1501.26 203.106 1536.26 246.526 1626.17C289.945 1716.07 275.497 1829.03 275.348 1830.16L274.929 1833.29ZM117.475 1507.26C115.498 1526.22 107.615 1624.55 146.079 1704.2C184.545 1783.85 257.194 1819.62 271.405 1826C273.383 1807.04 281.265 1708.71 242.801 1629.06C204.335 1549.41 131.686 1513.64 117.475 1507.26H117.475Z" fill="#3F3D56"/>
<path d="M277.772 1537C303.34 1537 324.067 1510.06 324.067 1476.82C324.067 1443.58 303.34 1416.64 277.772 1416.64C252.203 1416.64 231.476 1443.58 231.476 1476.82C231.476 1510.06 252.203 1537 277.772 1537Z" fill="#3F3D56"/>
<path d="M885.705 712.947L604.818 357.434H472.212V351.844H606.676L607.331 352.674L888.869 709.018L885.705 712.947Z" fill="#3F3D56"/>
<path d="M324.067 185.181H0V268.513H324.067V185.181Z" fill="#D0CDE1"/>
<path d="M324.067 305.549H0V388.88H324.067V305.549Z" fill="#D0CDE1"/>
<path d="M324.067 435.176H0V509.248H324.067V435.176Z" fill="#D0CDE1"/>
<path opacity="0.15" d="M138.886 185.181H0V268.513H138.886V185.181Z" fill="black"/>
<path opacity="0.15" d="M46.2953 305.549H0V388.88H46.2953V305.549Z" fill="black"/>
<path opacity="0.15" d="M212.958 435.176H0V509.248H212.958V435.176Z" fill="black"/>
<path d="M421.287 268.513C439.185 268.513 453.694 249.858 453.694 226.847C453.694 203.836 439.185 185.181 421.287 185.181C403.389 185.181 388.88 203.836 388.88 226.847C388.88 249.858 403.389 268.513 421.287 268.513Z" fill="#A6CEE3"/>
<path d="M421.287 407.399C439.185 407.399 453.694 386.672 453.694 361.103C453.694 335.535 439.185 314.808 421.287 314.808C403.389 314.808 388.88 335.535 388.88 361.103C388.88 386.672 403.389 407.399 421.287 407.399Z" fill="#A6CEE3"/>
<path d="M421.287 518.507C439.185 518.507 453.694 499.853 453.694 476.842C453.694 453.83 439.185 435.176 421.287 435.176C403.389 435.176 388.88 453.83 388.88 476.842C388.88 499.853 403.389 518.507 421.287 518.507Z" fill="#A6CEE3"/>
<path d="M402.769 268.513C394.528 268.513 386.472 265.526 379.621 259.93C372.769 254.335 367.428 246.381 364.275 237.076C361.121 227.771 360.296 217.531 361.904 207.653C363.511 197.775 367.48 188.701 373.307 181.579C379.134 174.457 386.558 169.607 394.64 167.642C402.723 165.677 411.1 166.685 418.714 170.54C426.327 174.394 432.834 180.921 437.413 189.296C441.991 197.67 444.435 207.516 444.435 217.588C444.422 231.089 440.028 244.034 432.217 253.581C424.406 263.128 413.815 268.498 402.769 268.513V268.513ZM402.769 172.654C395.498 172.654 388.39 175.29 382.344 180.227C376.298 185.164 371.586 192.182 368.803 200.393C366.021 208.603 365.293 217.638 366.711 226.354C368.13 235.07 371.631 243.077 376.773 249.361C381.914 255.645 388.465 259.924 395.597 261.658C402.728 263.392 410.12 262.502 416.838 259.101C423.555 255.7 429.297 249.941 433.337 242.552C437.377 235.162 439.533 226.475 439.533 217.588C439.522 205.675 435.645 194.254 428.753 185.83C421.86 177.406 412.516 172.668 402.769 172.654V172.654Z" fill="#3F3D56"/>
<path d="M402.769 398.139C394.528 398.139 386.472 395.424 379.621 390.337C372.769 385.25 367.428 378.02 364.275 369.561C361.121 361.101 360.296 351.793 361.904 342.812C363.511 333.832 367.48 325.583 373.307 319.108C379.134 312.634 386.558 308.225 394.64 306.438C402.723 304.652 411.1 305.569 418.714 309.073C426.327 312.577 432.834 318.511 437.413 326.124C441.991 333.737 444.435 342.688 444.435 351.844C444.422 364.118 440.028 375.886 432.217 384.565C424.406 393.244 413.815 398.126 402.769 398.139V398.139ZM402.769 310.995C395.498 310.995 388.39 313.391 382.344 317.88C376.298 322.368 371.586 328.748 368.803 336.212C366.021 343.676 365.293 351.889 366.711 359.813C368.13 367.737 371.631 375.016 376.773 380.729C381.914 386.441 388.465 390.332 395.597 391.908C402.728 393.484 410.12 392.675 416.838 389.583C423.555 386.492 429.297 381.256 433.337 374.538C437.377 367.821 439.533 359.923 439.533 351.844C439.522 341.014 435.645 330.631 428.753 322.973C421.86 315.315 412.516 311.008 402.769 310.995Z" fill="#3F3D56"/>
<path d="M402.769 518.507C394.528 518.507 386.472 515.52 379.621 509.924C372.769 504.329 367.428 496.375 364.275 487.07C361.121 477.765 360.296 467.526 361.904 457.647C363.511 447.769 367.48 438.695 373.307 431.573C379.134 424.451 386.558 419.601 394.64 417.636C402.723 415.671 411.1 416.679 418.714 420.534C426.327 424.388 432.834 430.915 437.413 439.29C441.991 447.664 444.435 457.51 444.435 467.582C444.422 481.083 440.028 494.028 432.217 503.575C424.406 513.122 413.815 518.492 402.769 518.507V518.507ZM402.769 422.648C395.498 422.648 388.39 425.284 382.344 430.221C376.298 435.158 371.586 442.176 368.803 450.387C366.021 458.597 365.293 467.632 366.711 476.348C368.13 485.064 371.631 493.071 376.773 499.355C381.914 505.639 388.465 509.919 395.597 511.652C402.728 513.386 410.12 512.496 416.838 509.095C423.555 505.694 429.297 499.935 433.337 492.546C437.377 485.157 439.533 476.469 439.533 467.582C439.522 455.669 435.645 444.248 428.753 435.824C421.86 427.4 412.516 422.662 402.769 422.648V422.648Z" fill="#3F3D56"/>
</g>
<defs>
<clipPath id="clip0">
<rect width="1990.7" height="1833.29" fill="white"/>
</clipPath>
</defs>
</svg>
